<svg width="400" height="400" viewBox="0 0 400 400" fill="none" xmlns="http://www.w3.org/2000/svg">
<path d="M55.1205 214.233H14.2591C10.4773 214.233 6.85048 212.731 4.17639 210.057C1.50229 207.383 0 203.756 0 199.974C0 196.193 1.50229 192.566 4.17639 189.892C6.85048 187.217 10.4773 185.715 14.2591 185.715H55.1205C58.9023 185.715 62.5291 187.217 65.2032 189.892C67.8773 192.566 69.3796 196.193 69.3796 199.974C69.3796 203.756 67.8773 207.383 65.2032 210.057C62.5291 212.731 58.9023 214.233 55.1205 214.233ZM97.5506 111.784C95.6787 111.789 93.8244 111.423 92.0944 110.708C90.3643 109.993 88.7928 108.943 87.4703 107.618L58.5921 78.7142C55.9186 76.0408 54.4167 72.4147 54.4167 68.6339C54.4167 66.7618 54.7854 64.908 55.5018 63.1784C56.2182 61.4488 57.2683 59.8773 58.5921 58.5535C59.9159 57.2297 61.4874 56.1797 63.217 55.4633C64.9466 54.7468 66.8004 54.3781 68.6724 54.3781C72.4533 54.3781 76.0793 55.88 78.7528 58.5535L107.631 87.4574C109.626 89.4498 110.985 91.9895 111.536 94.7547C112.087 97.52 111.805 100.387 110.725 102.991C109.646 105.596 107.818 107.822 105.472 109.387C103.127 110.953 100.37 111.787 97.5506 111.784ZM68.6724 345.535C65.8612 345.533 63.1135 344.699 60.7753 343.138C58.4371 341.577 56.6129 339.36 55.5324 336.764C54.452 334.169 54.1635 331.312 54.7034 328.553C55.2433 325.794 56.5873 323.257 58.5664 321.26L87.4446 292.356C88.7683 291.032 90.3399 289.982 92.0695 289.266C93.7991 288.549 95.6528 288.181 97.5249 288.181C99.397 288.181 101.251 288.549 102.98 289.266C104.71 289.982 106.282 291.032 107.605 292.356C108.929 293.68 109.979 295.251 110.696 296.981C111.412 298.711 111.781 300.564 111.781 302.437C111.781 304.309 111.412 306.162 110.696 307.892C109.979 309.622 108.929 311.193 107.605 312.517L78.7271 341.395C77.4067 342.724 75.8361 343.779 74.106 344.499C72.3759 345.218 70.5205 345.588 68.6467 345.587L68.6724 345.535ZM314.716 199.987C314.71 222.633 307.991 244.769 295.406 263.596C282.822 282.423 264.938 297.096 244.015 305.76C223.092 314.423 200.07 316.689 177.86 312.27C155.649 307.85 135.248 296.945 119.235 280.932C103.222 264.919 92.3167 244.518 87.8974 222.307C83.4782 200.097 85.7437 177.075 94.4075 156.152C103.071 135.229 117.744 117.345 136.571 104.761C155.399 92.1762 177.534 85.4567 200.18 85.4516C215.22 85.4482 230.113 88.4076 244.009 94.1608C257.905 99.9139 270.531 108.348 281.167 118.982C291.803 129.615 300.24 142.24 305.997 156.134C311.753 170.029 314.716 184.922 314.716 199.961V199.987ZM200 69.3282C198.127 69.3282 196.272 68.9589 194.542 68.2413C192.812 67.5238 191.241 66.4721 189.917 65.1465C188.594 63.8209 187.545 62.2473 186.831 60.5159C186.116 58.7845 185.75 56.9293 185.754 55.0562V14.2462C185.754 10.4679 187.255 6.84431 189.926 4.17262C192.598 1.50094 196.222 0 200 0C203.778 0 207.402 1.50094 210.074 4.17262C212.745 6.84431 214.246 10.4679 214.246 14.2462V55.082C214.25 56.955 213.884 58.8103 213.169 60.5417C212.455 62.2731 211.406 63.8466 210.083 65.1722C208.759 66.4978 207.188 67.5495 205.458 68.267C203.728 68.9846 201.873 69.3539 200 69.3539V69.3282ZM200 399.923C196.222 399.923 192.598 398.422 189.926 395.75C187.255 393.079 185.754 389.455 185.754 385.677V344.841C185.754 341.063 187.255 337.439 189.926 334.767C192.598 332.096 196.222 330.595 200 330.595C203.778 330.595 207.402 332.096 210.074 334.767C212.745 337.439 214.246 341.063 214.246 344.841V385.677C214.246 389.455 212.745 393.079 210.074 395.75C207.402 398.422 203.778 399.923 200 399.923ZM302.449 111.758C299.63 111.761 296.873 110.927 294.528 109.362C292.182 107.796 290.354 105.57 289.275 102.966C288.195 100.361 287.913 97.4943 288.464 94.729C289.015 91.9638 290.374 89.4241 292.369 87.4317L321.247 58.5535C323.917 55.88 327.54 54.3767 331.318 54.3743C335.097 54.3719 338.722 55.8706 341.395 58.5407C344.069 61.2107 345.572 64.8335 345.574 68.6119C345.577 72.3904 344.078 76.015 341.408 78.6885L312.53 107.567C311.21 108.897 309.64 109.953 307.909 110.672C306.179 111.392 304.323 111.761 302.449 111.758ZM331.328 345.509C329.456 345.513 327.602 345.146 325.872 344.431C324.142 343.717 322.571 342.667 321.247 341.344L292.369 312.465C289.696 309.792 288.194 306.166 288.194 302.385C288.194 298.604 289.696 294.978 292.369 292.305C295.042 289.631 298.669 288.129 302.449 288.129C306.23 288.129 309.856 289.631 312.53 292.305L341.408 321.209C343.403 323.201 344.762 325.741 345.313 328.506C345.864 331.271 345.581 334.138 344.502 336.743C343.423 339.347 341.595 341.573 339.249 343.139C336.904 344.704 334.147 345.538 331.328 345.535V345.509ZM385.741 214.208H344.879C341.098 214.208 337.471 212.705 334.797 210.031C332.123 207.357 330.62 203.73 330.62 199.949C330.62 196.167 332.123 192.54 334.797 189.866C337.471 187.192 341.098 185.689 344.879 185.689H385.741C389.523 185.689 393.15 187.192 395.824 189.866C398.498 192.54 400 196.167 400 199.949C400 203.73 398.498 207.357 395.824 210.031C393.15 212.705 389.523 214.208 385.741 214.208Z" fill="#EEB900"/>
</svg>
