<svg width="501" height="554" viewBox="0 0 501 554" fill="none" xmlns="http://www.w3.org/2000/svg">
<path d="M92.3231 325.562C92.3231 325.562 11.5863 325.65 0.250961 246.654C-5.14612 160.271 78.2965 143.246 78.2965 143.246C78.2965 143.246 68.8041 15.3694 185.96 0.787005C286.369 -9.46598 316.923 83.8494 316.923 83.8494C316.923 83.8494 347.171 54.7724 388.197 78.5254C424.924 101.196 418.43 142.705 418.43 142.705C418.43 142.705 500 158.56 500 241.696C498.172 324.729 411.409 325.562 411.409 325.562" fill="#E9EDF4"/>
<path fill-rule="evenodd" clip-rule="evenodd" d="M98.641 364C80.4992 370.759 31.044 401.081 20 420.21C8.954 439.342 15.5122 463.807 34.641 474.851C53.7698 485.895 78.236 479.342 89.282 460.21C100.326 441.081 101.755 382.703 98.641 364Z" fill="#2B88DD"/>
<path fill-rule="evenodd" clip-rule="evenodd" d="M284.641 364C266.499 370.759 217.044 401.081 206 420.21C194.954 439.342 201.512 463.807 220.641 474.851C239.77 485.895 264.236 479.342 275.282 460.21C286.326 441.081 287.755 382.703 284.641 364Z" fill="#2B88DD"/>
<path fill-rule="evenodd" clip-rule="evenodd" d="M465.641 364C447.499 370.759 398.044 401.081 387 420.21C375.954 439.342 382.512 463.807 401.641 474.851C420.77 485.895 445.236 479.342 456.282 460.21C467.326 441.081 468.755 382.703 465.641 364Z" fill="#2B88DD"/>
<path fill-rule="evenodd" clip-rule="evenodd" d="M165.185 471C154.299 475.055 124.626 493.249 118 504.726C111.372 516.205 115.307 530.884 126.785 537.511C138.262 544.137 152.942 540.205 159.569 528.726C166.196 517.249 167.053 482.222 165.185 471Z" fill="#2B88DD"/>
<path fill-rule="evenodd" clip-rule="evenodd" d="M346.185 475C335.299 479.055 305.626 497.249 299 508.726C292.372 520.205 296.307 534.884 307.785 541.511C319.262 548.137 333.942 544.205 340.569 532.726C347.196 521.249 348.053 486.222 346.185 475Z" fill="#2B88DD"/>
</svg>
