<svg width="400" height="445" viewBox="0 0 400 445" fill="none" xmlns="http://www.w3.org/2000/svg">
<path d="M73.8584 260.45C73.8584 260.45 9.26903 260.52 0.200769 197.323C-4.11689 128.217 62.6372 114.597 62.6372 114.597C62.6372 114.597 55.0433 12.2955 148.768 0.629604C229.095 -7.57279 253.539 67.0795 253.539 67.0795C253.539 67.0795 277.736 43.8179 310.558 62.8203C339.939 80.9569 334.744 114.164 334.744 114.164C334.744 114.164 400 126.848 400 193.357C398.537 259.783 329.127 260.45 329.127 260.45" fill="#E9EDF4"/>
<path fill-rule="evenodd" clip-rule="evenodd" d="M222.878 297.6C202.559 305.169 147.169 339.131 134.8 360.555C122.429 381.983 129.774 409.384 151.198 421.753C172.622 434.122 200.024 426.783 212.396 405.355C224.765 383.931 226.366 318.547 222.878 297.6Z" fill="#2B88DD"/>
<path fill-rule="evenodd" clip-rule="evenodd" d="M316.113 276C301.599 281.407 262.035 305.665 253.2 320.968C244.363 336.274 249.61 355.846 264.913 364.681C280.216 373.516 299.789 368.274 308.626 352.968C317.461 337.665 318.604 290.962 316.113 276Z" fill="#2B88DD"/>
<path fill-rule="evenodd" clip-rule="evenodd" d="M120.913 276C106.399 281.407 66.8352 305.665 58 320.968C49.1632 336.274 54.4097 355.846 69.7128 364.681C85.0158 373.516 104.589 368.274 113.426 352.968C122.261 337.665 123.404 290.962 120.913 276Z" fill="#2B88DD"/>
</svg>
