<svg width="400" height="387" viewBox="0 0 400 387" fill="none" xmlns="http://www.w3.org/2000/svg">
<path d="M102.547 105.062C102.547 47.0376 150.145 0 208.86 0C263.552 0 308.597 40.8132 314.513 93.302C356.149 107.539 386.046 146.626 386.046 192.612C386.046 212.316 380.558 230.754 371.008 246.512H386.046C393.753 246.512 400 252.759 400 260.465C400 268.171 393.753 274.419 386.046 274.419H13.9535C6.24726 274.419 0 268.171 0 260.465C0 252.759 6.24726 246.512 13.9535 246.512H18.9944C15.7354 237.913 13.9535 228.601 13.9535 218.878C13.9535 175.36 49.6517 140.082 93.6876 140.082C98.9736 140.082 104.14 140.59 109.138 141.56C104.876 130.192 102.547 117.895 102.547 105.062Z" fill="#E9EDF4"/>
<path d="M69.7675 302.326C62.0612 302.326 55.814 308.573 55.814 316.279C55.814 323.985 62.0612 330.233 69.7675 330.233H330.233C337.939 330.233 344.186 323.985 344.186 316.279C344.186 308.573 337.939 302.326 330.233 302.326H69.7675Z" fill="#E9EDF4"/>
<path d="M125.581 358.14C117.875 358.14 111.628 364.387 111.628 372.093C111.628 379.799 117.875 386.047 125.581 386.047H274.419C282.125 386.047 288.372 379.799 288.372 372.093C288.372 364.387 282.125 358.14 274.419 358.14H125.581Z" fill="#E9EDF4"/>
</svg>
