<svg width="400" height="355" viewBox="0 0 400 355" fill="none" xmlns="http://www.w3.org/2000/svg">
<path d="M102.547 94.8013C102.547 42.4439 150.145 0 208.86 0C263.552 0 308.597 36.8274 314.513 84.1901C356.149 97.0371 386.046 132.306 386.046 173.802C386.046 191.582 380.558 208.218 371.008 222.437H386.046C393.753 222.437 400 228.075 400 235.028C400 241.982 393.753 247.619 386.046 247.619H13.9535C6.24726 247.619 0 241.982 0 235.028C0 228.075 6.24726 222.437 13.9535 222.437H18.9944C15.7354 214.678 13.9535 206.276 13.9535 197.503C13.9535 158.234 49.6517 126.402 93.6876 126.402C98.9736 126.402 104.14 126.86 109.138 127.736C104.876 117.477 102.547 106.382 102.547 94.8013Z" fill="#E9EDF4"/>
<path d="M75.969 274.596C68.6297 274.596 62.6799 280.546 62.6799 287.885C62.6799 295.224 68.6297 301.174 75.969 301.174H324.031C331.37 301.174 337.32 295.224 337.32 287.885C337.32 280.546 331.37 274.596 324.031 274.596H75.969Z" fill="#E9EDF4"/>
<path d="M129.125 327.752C121.786 327.752 115.836 333.702 115.836 341.041C115.836 348.38 121.786 354.33 129.125 354.33H270.875C278.214 354.33 284.164 348.38 284.164 341.041C284.164 333.702 278.214 327.752 270.875 327.752H129.125Z" fill="#E9EDF4"/>
</svg>
