<svg width="499" height="400" viewBox="0 0 499 400" fill="none" xmlns="http://www.w3.org/2000/svg">
<path d="M118.121 214.233H77.2591C73.4773 214.233 69.8505 212.731 67.1764 210.057C64.5023 207.383 63 203.756 63 199.974C63 196.193 64.5023 192.566 67.1764 189.892C69.8505 187.217 73.4773 185.715 77.2591 185.715H118.121C121.902 185.715 125.529 187.217 128.203 189.892C130.877 192.566 132.38 196.193 132.38 199.974C132.38 203.756 130.877 207.383 128.203 210.057C125.529 212.731 121.902 214.233 118.121 214.233ZM160.551 111.784C158.679 111.789 156.824 111.423 155.094 110.708C153.364 109.993 151.793 108.943 150.47 107.618L121.592 78.7142C118.919 76.0408 117.417 72.4147 117.417 68.6339C117.417 66.7618 117.785 64.908 118.502 63.1784C119.218 61.4488 120.268 59.8773 121.592 58.5535C122.916 57.2297 124.487 56.1797 126.217 55.4633C127.947 54.7468 129.8 54.3781 131.672 54.3781C135.453 54.3781 139.079 55.88 141.753 58.5535L170.631 87.4574C172.626 89.4498 173.985 91.9895 174.536 94.7547C175.087 97.52 174.805 100.387 173.725 102.991C172.646 105.596 170.818 107.822 168.472 109.387C166.127 110.953 163.37 111.787 160.551 111.784ZM131.672 345.535C128.861 345.533 126.113 344.699 123.775 343.138C121.437 341.577 119.613 339.36 118.532 336.764C117.452 334.169 117.164 331.312 117.703 328.553C118.243 325.794 119.587 323.257 121.566 321.26L150.445 292.356C151.768 291.032 153.34 289.982 155.069 289.266C156.799 288.549 158.653 288.181 160.525 288.181C162.397 288.181 164.251 288.549 165.98 289.266C167.71 289.982 169.282 291.032 170.605 292.356C171.929 293.68 172.979 295.251 173.696 296.981C174.412 298.711 174.781 300.564 174.781 302.437C174.781 304.309 174.412 306.162 173.696 307.892C172.979 309.622 171.929 311.193 170.605 312.517L141.727 341.395C140.407 342.724 138.836 343.779 137.106 344.499C135.376 345.218 133.52 345.588 131.647 345.587L131.672 345.535ZM377.716 199.987C377.71 222.633 370.991 244.769 358.406 263.596C345.822 282.423 327.938 297.096 307.015 305.76C286.092 314.423 263.07 316.689 240.86 312.27C218.649 307.85 198.248 296.945 182.235 280.932C166.222 264.919 155.317 244.518 150.897 222.307C146.478 200.097 148.744 177.075 157.408 156.152C166.071 135.229 180.744 117.345 199.571 104.761C218.399 92.1762 240.534 85.4567 263.18 85.4516C278.22 85.4482 293.113 88.4076 307.009 94.1608C320.905 99.9139 333.531 108.348 344.167 118.982C354.803 129.615 363.24 142.24 368.997 156.134C374.753 170.029 377.716 184.922 377.716 199.961V199.987ZM263 69.3282C261.127 69.3282 259.272 68.9589 257.542 68.2413C255.812 67.5238 254.241 66.4721 252.917 65.1465C251.594 63.8209 250.545 62.2473 249.831 60.5159C249.116 58.7845 248.75 56.9293 248.754 55.0562V14.2462C248.754 10.4679 250.255 6.84431 252.926 4.17262C255.598 1.50094 259.222 0 263 0C266.778 0 270.402 1.50094 273.074 4.17262C275.745 6.84431 277.246 10.4679 277.246 14.2462V55.082C277.25 56.955 276.884 58.8103 276.169 60.5417C275.455 62.2731 274.406 63.8466 273.083 65.1722C271.759 66.4978 270.188 67.5495 268.458 68.267C266.728 68.9846 264.873 69.3539 263 69.3539V69.3282ZM263 399.923C259.222 399.923 255.598 398.422 252.926 395.75C250.255 393.079 248.754 389.455 248.754 385.677V344.841C248.754 341.063 250.255 337.439 252.926 334.767C255.598 332.096 259.222 330.595 263 330.595C266.778 330.595 270.402 332.096 273.074 334.767C275.745 337.439 277.246 341.063 277.246 344.841V385.677C277.246 389.455 275.745 393.079 273.074 395.75C270.402 398.422 266.778 399.923 263 399.923ZM365.449 111.758C362.63 111.761 359.873 110.927 357.528 109.362C355.182 107.796 353.354 105.57 352.275 102.966C351.195 100.361 350.913 97.4943 351.464 94.729C352.015 91.9638 353.374 89.4241 355.369 87.4317L384.247 58.5535C386.917 55.88 390.54 54.3767 394.318 54.3743C398.097 54.3719 401.722 55.8706 404.395 58.5407C407.069 61.2107 408.572 64.8335 408.574 68.6119C408.577 72.3904 407.078 76.015 404.408 78.6885L375.53 107.567C374.21 108.897 372.64 109.953 370.909 110.672C369.179 111.392 367.323 111.761 365.449 111.758ZM394.328 345.509C392.456 345.513 390.602 345.146 388.872 344.431C387.142 343.717 385.571 342.667 384.247 341.344L355.369 312.465C352.696 309.792 351.194 306.166 351.194 302.385C351.194 298.604 352.696 294.978 355.369 292.305C358.042 289.631 361.669 288.129 365.449 288.129C369.23 288.129 372.856 289.631 375.53 292.305L404.408 321.209C406.403 323.201 407.762 325.741 408.313 328.506C408.864 331.271 408.581 334.138 407.502 336.743C406.423 339.347 404.595 341.573 402.249 343.139C399.904 344.704 397.147 345.538 394.328 345.535V345.509ZM448.741 214.208H407.879C404.098 214.208 400.471 212.705 397.797 210.031C395.123 207.357 393.62 203.73 393.62 199.949C393.62 196.167 395.123 192.54 397.797 189.866C400.471 187.192 404.098 185.689 407.879 185.689H448.741C452.523 185.689 456.15 187.192 458.824 189.866C461.498 192.54 463 196.167 463 199.949C463 203.73 461.498 207.357 458.824 210.031C456.15 212.705 452.523 214.208 448.741 214.208Z" fill="#EEB900"/>
<path d="M335.929 358.225C335.929 358.225 303.635 358.26 299.1 326.662C296.942 292.109 330.319 285.299 330.319 285.299C330.319 285.299 326.522 234.148 373.384 228.315C413.548 224.214 425.769 261.54 425.769 261.54C425.769 261.54 437.868 249.909 454.279 259.41C468.969 268.478 466.372 285.082 466.372 285.082C466.372 285.082 499 291.424 499 324.678C498.269 357.892 463.564 358.225 463.564 358.225" fill="#E9EDF4"/>
<path d="M48.008 169.292C48.008 169.292 6.02487 169.338 0.130498 128.26C-2.67598 83.3411 40.7142 74.4882 40.7142 74.4882C40.7142 74.4882 35.7781 7.99206 96.6993 0.409242C148.912 -4.92231 164.8 43.6017 164.8 43.6017C164.8 43.6017 180.529 28.4817 201.862 40.8332C220.96 52.6219 217.583 74.2068 217.583 74.2068C217.583 74.2068 260 82.4513 260 125.682C259.049 168.859 213.933 169.292 213.933 169.292" fill="#E9EDF4"/>
</svg>
