<svg width="460" height="400" viewBox="0 0 460 400" fill="none" xmlns="http://www.w3.org/2000/svg">
<path d="M95.1205 214.233H54.2591C50.4773 214.233 46.8505 212.731 44.1764 210.057C41.5023 207.383 40 203.756 40 199.974C40 196.193 41.5023 192.566 44.1764 189.892C46.8505 187.217 50.4773 185.715 54.2591 185.715H95.1205C98.9023 185.715 102.529 187.217 105.203 189.892C107.877 192.566 109.38 196.193 109.38 199.974C109.38 203.756 107.877 207.383 105.203 210.057C102.529 212.731 98.9023 214.233 95.1205 214.233ZM137.551 111.784C135.679 111.789 133.824 111.423 132.094 110.708C130.364 109.993 128.793 108.943 127.47 107.618L98.5921 78.7142C95.9186 76.0408 94.4167 72.4147 94.4167 68.6339C94.4167 66.7618 94.7854 64.908 95.5018 63.1784C96.2182 61.4488 97.2683 59.8773 98.5921 58.5535C99.9159 57.2297 101.487 56.1797 103.217 55.4633C104.947 54.7468 106.8 54.3781 108.672 54.3781C112.453 54.3781 116.079 55.88 118.753 58.5535L147.631 87.4574C149.626 89.4498 150.985 91.9895 151.536 94.7547C152.087 97.52 151.805 100.387 150.725 102.991C149.646 105.596 147.818 107.822 145.472 109.387C143.127 110.953 140.37 111.787 137.551 111.784ZM108.672 345.535C105.861 345.533 103.113 344.699 100.775 343.138C98.4371 341.577 96.6129 339.36 95.5324 336.764C94.452 334.169 94.1635 331.312 94.7034 328.553C95.2433 325.794 96.5873 323.257 98.5664 321.26L127.445 292.356C128.768 291.032 130.34 289.982 132.069 289.266C133.799 288.549 135.653 288.181 137.525 288.181C139.397 288.181 141.251 288.549 142.98 289.266C144.71 289.982 146.282 291.032 147.605 292.356C148.929 293.68 149.979 295.251 150.696 296.981C151.412 298.711 151.781 300.564 151.781 302.437C151.781 304.309 151.412 306.162 150.696 307.892C149.979 309.622 148.929 311.193 147.605 312.517L118.727 341.395C117.407 342.724 115.836 343.779 114.106 344.499C112.376 345.218 110.52 345.588 108.647 345.587L108.672 345.535ZM354.716 199.987C354.71 222.633 347.991 244.769 335.406 263.596C322.822 282.423 304.938 297.096 284.015 305.76C263.092 314.423 240.07 316.689 217.86 312.27C195.649 307.85 175.248 296.945 159.235 280.932C143.222 264.919 132.317 244.518 127.897 222.307C123.478 200.097 125.744 177.075 134.408 156.152C143.071 135.229 157.744 117.345 176.571 104.761C195.399 92.1762 217.534 85.4567 240.18 85.4516C255.22 85.4482 270.113 88.4076 284.009 94.1608C297.905 99.9139 310.531 108.348 321.167 118.982C331.803 129.615 340.24 142.24 345.997 156.134C351.753 170.029 354.716 184.922 354.716 199.961V199.987ZM240 69.3282C238.127 69.3282 236.272 68.9589 234.542 68.2413C232.812 67.5238 231.241 66.4721 229.917 65.1465C228.594 63.8209 227.545 62.2473 226.831 60.5159C226.116 58.7845 225.75 56.9293 225.754 55.0562V14.2462C225.754 10.4679 227.255 6.84431 229.926 4.17262C232.598 1.50094 236.222 0 240 0C243.778 0 247.402 1.50094 250.074 4.17262C252.745 6.84431 254.246 10.4679 254.246 14.2462V55.082C254.25 56.955 253.884 58.8103 253.169 60.5417C252.455 62.2731 251.406 63.8466 250.083 65.1722C248.759 66.4978 247.188 67.5495 245.458 68.267C243.728 68.9846 241.873 69.3539 240 69.3539V69.3282ZM240 399.923C236.222 399.923 232.598 398.422 229.926 395.75C227.255 393.079 225.754 389.455 225.754 385.677V344.841C225.754 341.063 227.255 337.439 229.926 334.767C232.598 332.096 236.222 330.595 240 330.595C243.778 330.595 247.402 332.096 250.074 334.767C252.745 337.439 254.246 341.063 254.246 344.841V385.677C254.246 389.455 252.745 393.079 250.074 395.75C247.402 398.422 243.778 399.923 240 399.923ZM342.449 111.758C339.63 111.761 336.873 110.927 334.528 109.362C332.182 107.796 330.354 105.57 329.275 102.966C328.195 100.361 327.913 97.4943 328.464 94.729C329.015 91.9638 330.374 89.4241 332.369 87.4317L361.247 58.5535C363.917 55.88 367.54 54.3767 371.318 54.3743C375.097 54.3719 378.722 55.8706 381.395 58.5407C384.069 61.2107 385.572 64.8335 385.574 68.6119C385.577 72.3904 384.078 76.015 381.408 78.6885L352.53 107.567C351.21 108.897 349.64 109.953 347.909 110.672C346.179 111.392 344.323 111.761 342.449 111.758ZM371.328 345.509C369.456 345.513 367.602 345.146 365.872 344.431C364.142 343.717 362.571 342.667 361.247 341.344L332.369 312.465C329.696 309.792 328.194 306.166 328.194 302.385C328.194 298.604 329.696 294.978 332.369 292.305C335.042 289.631 338.669 288.129 342.449 288.129C346.23 288.129 349.856 289.631 352.53 292.305L381.408 321.209C383.403 323.201 384.762 325.741 385.313 328.506C385.864 331.271 385.581 334.138 384.502 336.743C383.423 339.347 381.595 341.573 379.249 343.139C376.904 344.704 374.147 345.538 371.328 345.535V345.509ZM425.741 214.208H384.879C381.098 214.208 377.471 212.705 374.797 210.031C372.123 207.357 370.62 203.73 370.62 199.949C370.62 196.167 372.123 192.54 374.797 189.866C377.471 187.192 381.098 185.689 384.879 185.689H425.741C429.523 185.689 433.15 187.192 435.824 189.866C438.498 192.54 440 196.167 440 199.949C440 203.73 438.498 207.357 435.824 210.031C433.15 212.705 429.523 214.208 425.741 214.208Z" fill="#EEB900"/>
<path d="M313.236 354.202C313.236 354.202 284.171 354.234 280.09 325.795C278.147 294.698 308.187 288.569 308.187 288.569C308.187 288.569 304.769 242.533 346.946 237.283C383.093 233.592 394.092 267.186 394.092 267.186C394.092 267.186 404.981 256.718 419.751 265.269C432.972 273.431 430.635 288.374 430.635 288.374C430.635 288.374 460 294.082 460 324.01C459.342 353.902 428.107 354.202 428.107 354.202" fill="#E9EDF4"/>
<path d="M44.3151 156.27C44.3151 156.27 5.56142 156.312 0.120461 118.394C-2.47014 76.9303 37.5823 68.7583 37.5823 68.7583C37.5823 68.7583 33.026 7.37729 89.2609 0.377762C137.457 -4.54367 152.123 40.2477 152.123 40.2477C152.123 40.2477 166.642 26.2908 186.335 37.6922C203.963 48.5741 200.846 68.4986 200.846 68.4986C200.846 68.4986 240 76.1089 240 116.014C239.122 155.87 197.476 156.27 197.476 156.27" fill="#E9EDF4"/>
</svg>
