<svg width="460" height="436" viewBox="0 0 460 436" fill="none" xmlns="http://www.w3.org/2000/svg">
<path d="M260.154 0C341.388 27.2494 400 103.856 400 194.344C400 307.969 307.969 400 194.344 400C103.856 400 27.2494 341.388 0 260.154C20.5656 266.838 42.6735 271.465 65.8098 271.465C179.434 271.465 271.465 179.434 271.465 65.8098C271.465 42.6735 267.352 20.5656 260.154 0Z" fill="#EEB900"/>
<path d="M313.236 435.202C313.236 435.202 284.171 435.234 280.09 406.795C278.147 375.698 308.187 369.569 308.187 369.569C308.187 369.569 304.769 323.533 346.946 318.283C383.093 314.592 394.092 348.186 394.092 348.186C394.092 348.186 404.981 337.718 419.751 346.269C432.972 354.431 430.635 369.374 430.635 369.374C430.635 369.374 460 375.082 460 405.01C459.342 434.902 428.107 435.202 428.107 435.202" fill="#E9EDF4"/>
<path d="M44.3151 237.27C44.3151 237.27 5.56142 237.312 0.120461 199.394C-2.47014 157.93 37.5823 149.758 37.5823 149.758C37.5823 149.758 33.026 88.3773 89.2609 81.3778C137.457 76.4563 152.123 121.248 152.123 121.248C152.123 121.248 166.642 107.291 186.335 118.692C203.963 129.574 200.846 149.499 200.846 149.499C200.846 149.499 240 157.109 240 197.014C239.122 236.87 197.476 237.27 197.476 237.27" fill="#E9EDF4"/>
</svg>
