<svg width="450" height="389" viewBox="0 0 450 389" fill="none" xmlns="http://www.w3.org/2000/svg">
<path d="M162.712 0C213.519 17.0429 250.177 64.9561 250.177 121.551C250.177 192.617 192.617 250.177 121.551 250.177C64.9561 250.177 17.0429 213.519 0 162.712C12.8626 166.892 26.6899 169.786 41.1603 169.786C112.226 169.786 169.786 112.226 169.786 41.1603C169.786 26.6899 167.214 12.8626 162.712 0Z" fill="#BCD8F3"/>
<path d="M164.655 388.493C164.655 388.493 108.145 388.554 100.211 333.262C96.4335 272.801 154.837 260.884 154.837 260.884C154.837 260.884 148.193 171.38 230.194 161.173C300.474 153.997 321.859 219.311 321.859 219.311C321.859 219.311 343.03 198.959 371.746 215.584C397.452 231.452 392.906 260.506 392.906 260.506C392.906 260.506 450 271.603 450 329.792C448.72 387.909 387.993 388.493 387.993 388.493" fill="#E9EDF4"/>
</svg>
