<svg width="520" height="401" viewBox="0 0 520 401" fill="none" xmlns="http://www.w3.org/2000/svg">
<path d="M188.612 0C247.506 19.7558 290 75.2956 290 140.9C290 223.278 223.278 290 140.9 290C75.2956 290 19.7558 247.506 0 188.612C14.91 193.458 30.9383 196.812 47.7121 196.812C130.09 196.812 196.812 130.09 196.812 47.7121C196.812 30.9383 193.83 14.91 188.612 0Z" fill="#EEB900"/>
<path d="M177.829 400.251C177.829 400.251 110.065 400.325 100.551 334.022C96.0207 261.519 166.056 247.23 166.056 247.23C166.056 247.23 158.089 139.9 256.42 127.661C340.695 119.055 366.34 197.376 366.34 197.376C366.34 197.376 391.727 172.972 426.162 192.908C456.987 211.936 451.536 246.775 451.536 246.775C451.536 246.775 520 260.083 520 329.86C518.465 399.551 445.644 400.251 445.644 400.251" fill="#E9EDF4"/>
</svg>
