<svg width="500" height="368" viewBox="0 0 500 368" fill="none" xmlns="http://www.w3.org/2000/svg">
<path d="M39.9657 155.332H10.3387C7.5967 155.332 4.96702 154.243 3.02813 152.304C1.08925 150.365 0 147.735 0 144.993C0 142.252 1.08925 139.622 3.02813 137.683C4.96702 135.744 7.5967 134.655 10.3387 134.655H39.9657C42.7077 134.655 45.3374 135.744 47.2763 137.683C49.2152 139.622 50.3044 142.252 50.3044 144.993C50.3044 147.735 49.2152 150.365 47.2763 152.304C45.3374 154.243 42.7077 155.332 39.9657 155.332ZM70.7301 81.0502C69.3729 81.0535 68.0284 80.7883 66.774 80.2699C65.5196 79.7516 64.3802 78.9902 63.4213 78.0297L42.4828 57.0726C40.5444 55.1342 39.4554 52.5051 39.4554 49.7637C39.4554 48.4063 39.7227 47.0623 40.2422 45.8082C40.7616 44.5541 41.523 43.4147 42.4828 42.4549C43.4426 41.495 44.5821 40.7337 45.8362 40.2142C47.0902 39.6948 48.4343 39.4274 49.7917 39.4274C52.5331 39.4274 55.1621 40.5164 57.1006 42.4549L78.039 63.4119C79.4856 64.8566 80.4709 66.6979 80.8703 68.7029C81.2697 70.7079 81.0651 72.7864 80.2825 74.675C79.4999 76.5637 78.1744 78.1776 76.474 79.3125C74.7735 80.4474 72.7745 81.0521 70.7301 81.0502ZM49.7917 250.534C47.7534 250.532 45.7611 249.928 44.0658 248.796C42.3704 247.664 41.0478 246.056 40.2644 244.175C39.481 242.293 39.2718 240.221 39.6633 238.221C40.0547 236.221 41.0293 234.381 42.4642 232.933L63.4026 211.976C64.3624 211.016 65.5019 210.255 66.7559 209.735C68.01 209.216 69.3541 208.949 70.7115 208.949C72.0689 208.949 73.413 209.216 74.667 209.735C75.9211 210.255 77.0605 211.016 78.0204 211.976C78.9802 212.936 79.7415 214.075 80.261 215.329C80.7804 216.583 81.0478 217.927 81.0478 219.285C81.0478 220.642 80.7804 221.986 80.261 223.24C79.7415 224.494 78.9802 225.634 78.0204 226.594L57.0819 247.532C56.1245 248.496 54.9858 249.261 53.7313 249.782C52.4769 250.304 51.1316 250.572 49.7731 250.571L49.7917 250.534ZM228.188 145.003C228.184 161.422 223.312 177.472 214.188 191.123C205.063 204.774 192.096 215.412 176.926 221.694C161.755 227.976 145.063 229.619 128.959 226.414C112.855 223.21 98.063 215.303 86.4527 203.693C74.8423 192.082 66.9352 177.29 63.731 161.186C60.5268 145.083 62.1694 128.39 68.4512 113.22C74.733 98.0495 85.3718 85.0824 99.0226 75.9579C112.673 66.8334 128.723 61.9613 145.143 61.9576C156.047 61.9552 166.846 64.1009 176.921 68.2723C186.997 72.4437 196.152 78.559 203.863 86.2689C211.575 93.9789 217.692 103.133 221.866 113.207C226.04 123.281 228.188 134.079 228.188 144.984V145.003ZM145.012 50.2671C143.654 50.2671 142.309 49.9994 141.055 49.4791C139.801 48.9588 138.661 48.1963 137.702 47.2351C136.742 46.274 135.982 45.1331 135.464 43.8777C134.946 42.6224 134.68 41.2772 134.683 39.9191V10.3294C134.683 7.58986 135.771 4.96254 137.708 3.02541C139.645 1.08827 142.273 0 145.012 0C147.752 0 150.379 1.08827 152.316 3.02541C154.253 4.96254 155.342 7.58986 155.342 10.3294V39.9378C155.344 41.2958 155.079 42.641 154.561 43.8964C154.043 45.1517 153.282 46.2927 152.323 47.2538C151.363 48.2149 150.224 48.9775 148.969 49.4977C147.715 50.018 146.37 50.2858 145.012 50.2858V50.2671ZM145.012 289.968C142.273 289.968 139.645 288.88 137.708 286.943C135.771 285.006 134.683 282.378 134.683 279.639V250.031C134.683 247.291 135.771 244.664 137.708 242.727C139.645 240.789 142.273 239.701 145.012 239.701C147.752 239.701 150.379 240.789 152.316 242.727C154.253 244.664 155.342 247.291 155.342 250.031V279.639C155.342 282.378 154.253 285.006 152.316 286.943C150.379 288.88 147.752 289.968 145.012 289.968ZM219.294 81.0315C217.25 81.0335 215.251 80.4287 213.55 79.2938C211.85 78.159 210.524 76.545 209.742 74.6564C208.959 72.7677 208.755 70.6893 209.154 68.6843C209.553 66.6793 210.539 64.8379 211.985 63.3933L232.924 42.4549C234.86 40.5164 237.486 39.4264 240.226 39.4247C242.966 39.4229 245.594 40.5096 247.532 42.4455C249.471 44.3815 250.561 47.0082 250.562 49.7478C250.564 52.4874 249.477 55.1155 247.541 57.054L226.603 77.9924C225.646 78.9571 224.508 79.7225 223.253 80.2441C221.998 80.7658 220.653 81.0334 219.294 81.0315ZM240.233 250.515C238.875 250.518 237.531 250.252 236.277 249.734C235.023 249.215 233.883 248.455 232.924 247.495L211.985 226.556C210.047 224.618 208.958 221.989 208.958 219.248C208.958 216.506 210.047 213.877 211.985 211.939C213.924 210 216.553 208.911 219.294 208.911C222.036 208.911 224.665 210 226.603 211.939L247.541 232.896C248.988 234.34 249.973 236.182 250.373 238.187C250.772 240.192 250.568 242.27 249.785 244.159C249.002 246.047 247.677 247.661 245.976 248.796C244.276 249.931 242.277 250.536 240.233 250.534V250.515ZM279.686 155.314H250.059C247.317 155.314 244.687 154.224 242.748 152.285C240.809 150.347 239.72 147.717 239.72 144.975C239.72 142.233 240.809 139.603 242.748 137.664C244.687 135.725 247.317 134.636 250.059 134.636H279.686C282.428 134.636 285.057 135.725 286.996 137.664C288.935 139.603 290.024 142.233 290.024 144.975C290.024 147.717 288.935 150.347 286.996 152.285C285.057 154.224 282.428 155.314 279.686 155.314Z" fill="#EEB900"/>
<path d="M157.827 367.024C157.827 367.024 90.0622 367.097 80.5482 300.794C76.0183 228.291 146.054 214.001 146.054 214.001C146.054 214.001 138.086 106.671 236.419 94.4315C320.694 85.826 346.339 164.148 346.339 164.148C346.339 164.148 371.726 139.743 406.161 159.679C436.986 178.707 431.536 213.547 431.536 213.547C431.536 213.547 500 226.855 500 296.632C498.465 366.324 425.643 367.024 425.643 367.024" fill="#E9EDF4"/>
</svg>
