<svg width="417" height="394" viewBox="0 0 417 394" fill="none" xmlns="http://www.w3.org/2000/svg">
<path d="M41.3404 160.675H10.6943C7.858 160.675 5.13786 159.548 3.13229 157.543C1.12672 155.537 0 152.817 0 149.981C0 147.144 1.12672 144.424 3.13229 142.419C5.13786 140.413 7.858 139.286 10.6943 139.286H41.3404C44.1767 139.286 46.8969 140.413 48.9024 142.419C50.908 144.424 52.0347 147.144 52.0347 149.981C52.0347 152.817 50.908 155.537 48.9024 157.543C46.8969 159.548 44.1767 160.675 41.3404 160.675ZM73.163 83.838C71.759 83.8414 70.3683 83.5672 69.0708 83.0309C67.7733 82.4947 66.5946 81.7072 65.6027 80.7136L43.9441 59.0357C41.939 57.0306 40.8125 54.3111 40.8125 51.4754C40.8125 50.0713 41.0891 48.681 41.6264 47.3838C42.1637 46.0866 42.9512 44.908 43.9441 43.9151C44.9369 42.9223 46.1156 42.1348 47.4128 41.5974C48.7099 41.0601 50.1003 40.7836 51.5043 40.7836C54.34 40.7836 57.0595 41.91 59.0646 43.9151L80.7232 65.5931C82.2196 67.0874 83.2388 68.9921 83.6519 71.0661C84.065 73.14 83.8534 75.2899 83.0439 77.2436C82.2344 79.1972 80.8633 80.8666 79.1044 82.0405C77.3454 83.2145 75.2777 83.84 73.163 83.838ZM51.5043 259.151C49.3959 259.15 47.3351 258.524 45.5815 257.354C43.8278 256.183 42.4597 254.52 41.6493 252.573C40.839 250.627 40.6226 248.484 41.0275 246.415C41.4325 244.346 42.4405 242.443 43.9248 240.945L65.5834 219.267C66.5762 218.274 67.7549 217.487 69.0521 216.949C70.3493 216.412 71.7396 216.136 73.1437 216.136C74.5478 216.136 75.9381 216.412 77.2353 216.949C78.5325 217.487 79.7111 218.274 80.704 219.267C81.6968 220.26 82.4843 221.439 83.0217 222.736C83.559 224.033 83.8355 225.423 83.8355 226.827C83.8355 228.231 83.559 229.622 83.0217 230.919C82.4843 232.216 81.6968 233.395 80.704 234.388L59.0453 256.046C58.055 257.043 56.8771 257.834 55.5795 258.374C54.2819 258.914 52.8903 259.191 51.4851 259.19L51.5043 259.151ZM236.037 149.99C236.033 166.975 230.993 183.576 221.555 197.697C212.116 211.817 198.703 222.822 183.011 229.32C167.319 235.818 150.053 237.517 133.395 234.202C116.737 230.888 101.436 222.709 89.4263 210.699C77.4166 198.689 69.2375 183.388 65.9231 166.731C62.6087 150.073 64.3078 132.806 70.8057 117.114C77.3035 101.422 88.3083 88.0089 102.429 78.5705C116.549 69.1322 133.151 64.0925 150.135 64.0887C161.415 64.0862 172.585 66.3057 183.007 70.6206C193.429 74.9355 202.899 81.2611 210.875 89.2363C218.852 97.2114 225.18 106.68 229.497 117.101C233.815 127.522 236.037 138.691 236.037 149.971V149.99ZM150 51.9961C148.595 51.9961 147.204 51.7191 145.907 51.181C144.609 50.6428 143.43 49.8541 142.438 48.8599C141.446 47.8657 140.659 46.6855 140.123 45.387C139.587 44.0884 139.313 42.6969 139.315 41.2922V10.6847C139.315 7.85092 140.441 5.13323 142.445 3.12947C144.449 1.1257 147.166 0 150 0C152.834 0 155.551 1.1257 157.555 3.12947C159.559 5.13323 160.685 7.85092 160.685 10.6847V41.3115C160.687 42.7162 160.413 44.1077 159.877 45.4062C159.341 46.7048 158.554 47.8849 157.562 48.8792C156.57 49.8734 155.391 50.6621 154.093 51.2003C152.796 51.7384 151.405 52.0154 150 52.0154V51.9961ZM150 299.942C147.166 299.942 144.449 298.816 142.445 296.813C140.441 294.809 139.315 292.091 139.315 289.257V258.631C139.315 255.797 140.441 253.079 142.445 251.075C144.449 249.072 147.166 247.946 150 247.946C152.834 247.946 155.551 249.072 157.555 251.075C159.559 253.079 160.685 255.797 160.685 258.631V289.257C160.685 292.091 159.559 294.809 157.555 296.813C155.551 298.816 152.834 299.942 150 299.942ZM226.837 83.8187C224.722 83.8207 222.655 83.1952 220.896 82.0213C219.137 80.8473 217.766 79.1779 216.956 77.2243C216.147 75.2706 215.935 73.1207 216.348 71.0468C216.761 68.9728 217.78 67.0681 219.277 65.5738L240.935 43.9151C242.938 41.91 245.655 40.7826 248.489 40.7808C251.323 40.7789 254.041 41.9029 256.046 43.9055C258.051 45.908 259.179 48.6251 259.181 51.4589C259.183 54.2928 258.058 57.0113 256.056 59.0164L234.397 80.675C233.408 81.6729 232.23 82.4646 230.932 83.0042C229.634 83.5438 228.242 83.8207 226.837 83.8187ZM248.496 259.132C247.092 259.135 245.701 258.86 244.404 258.324C243.107 257.787 241.928 257 240.935 256.008L219.277 234.349C217.272 232.344 216.145 229.624 216.145 226.789C216.145 223.953 217.272 221.234 219.277 219.229C221.282 217.223 224.001 216.097 226.837 216.097C229.673 216.097 232.392 217.223 234.397 219.229L256.056 240.906C257.552 242.401 258.572 244.306 258.985 246.379C259.398 248.453 259.186 250.603 258.377 252.557C257.567 254.511 256.196 256.18 254.437 257.354C252.678 258.528 250.61 259.153 248.496 259.151V259.132ZM289.306 160.656H258.66C255.823 160.656 253.103 159.529 251.098 157.523C249.092 155.518 247.965 152.798 247.965 149.961C247.965 147.125 249.092 144.405 251.098 142.399C253.103 140.394 255.823 139.267 258.66 139.267H289.306C292.142 139.267 294.862 140.394 296.868 142.399C298.873 144.405 300 147.125 300 149.961C300 152.798 298.873 155.518 296.868 157.523C294.862 159.529 292.142 160.656 289.306 160.656Z" fill="#EEB900"/>
<path d="M126.173 393.702C126.173 393.702 68.5775 393.765 60.4911 337.411C56.641 275.788 116.167 263.643 116.167 263.643C116.167 263.643 109.395 172.418 192.972 162.016C264.601 154.701 286.398 221.27 286.398 221.27C286.398 221.27 307.975 200.527 337.243 217.472C363.442 233.645 358.81 263.257 358.81 263.257C358.81 263.257 417 274.567 417 333.874C415.696 393.108 353.801 393.702 353.801 393.702" fill="#E9EDF4"/>
</svg>
