<svg width="519" height="614" viewBox="0 0 519 614" fill="none" xmlns="http://www.w3.org/2000/svg">
<path fill-rule="evenodd" clip-rule="evenodd" d="M308.498 204.163C251.76 225.3 97.0897 320.134 62.5497 379.959C28.0035 439.795 48.5143 516.308 108.339 550.848C168.164 585.388 244.682 564.894 279.228 505.059C313.768 445.234 318.237 262.655 308.498 204.163Z" fill="#2B88DD"/>
<path fill-rule="evenodd" clip-rule="evenodd" d="M475.399 161.02C452.704 169.475 390.836 207.409 377.02 231.339C363.201 255.273 371.406 285.878 395.336 299.694C419.266 313.51 449.873 305.313 463.691 281.378C477.507 257.448 479.295 184.417 475.399 161.02Z" fill="#2B88DD"/>
<path fill-rule="evenodd" clip-rule="evenodd" d="M185.099 37.5298C151.056 50.2122 58.2538 107.113 37.5298 143.008C16.8021 178.909 29.1086 224.817 65.0036 245.541C100.899 266.265 146.809 253.969 167.537 218.068C188.261 182.173 190.942 72.6251 185.099 37.5298Z" fill="#2B88DD"/>
</svg>
