<svg width="400" height="436" viewBox="0 0 400 436" fill="none" xmlns="http://www.w3.org/2000/svg">
<path d="M73.8584 260.45C73.8584 260.45 9.26905 260.52 0.20079 197.323C-4.11687 128.217 62.6372 114.597 62.6372 114.597C62.6372 114.597 55.0433 12.2955 148.768 0.629604C229.095 -7.57279 253.539 67.0795 253.539 67.0795C253.539 67.0795 277.736 43.8179 310.558 62.8203C339.939 80.9569 334.744 114.164 334.744 114.164C334.744 114.164 400 126.848 400 193.357C398.537 259.783 329.127 260.45 329.127 260.45" fill="#E9EDF4"/>
<path d="M259.24 328.98C258.02 326.541 255.528 325 252.8 325H216.451L235.24 287.42C236.357 285.188 236.237 282.537 234.925 280.415C233.613 278.292 231.296 277 228.8 277H185.6C182.872 277 180.38 278.541 179.16 280.98L140.76 357.78C139.644 360.012 139.763 362.663 141.075 364.786C142.387 366.909 144.704 368.2 147.2 368.2H186.293L173.76 426.692C173.051 429.998 174.739 433.351 177.816 434.753C178.778 435.19 179.793 435.401 180.797 435.401C183.008 435.401 185.165 434.38 186.56 432.52L258.56 336.52C260.196 334.339 260.46 331.419 259.24 328.98Z" fill="#EEB900"/>
</svg>
