<svg width="500" height="565" viewBox="0 0 500 565" fill="none" xmlns="http://www.w3.org/2000/svg">
<path d="M92.3231 325.562C92.3231 325.562 11.5863 325.65 0.250961 246.654C-5.14612 160.271 78.2965 143.246 78.2965 143.246C78.2965 143.246 68.8041 15.3694 185.96 0.787005C286.369 -9.46598 316.923 83.8494 316.923 83.8494C316.923 83.8494 347.171 54.7724 388.197 78.5254C424.924 101.196 418.43 142.705 418.43 142.705C418.43 142.705 500 158.56 500 241.696C498.172 324.729 411.409 325.562 411.409 325.562" fill="#E9EDF4"/>
<path d="M328.987 422.307C327.361 419.054 324.037 417 320.4 417H271.934L296.987 366.893C298.476 363.918 298.316 360.383 296.567 357.553C294.817 354.723 291.727 353 288.4 353H230.8C227.163 353 223.84 355.054 222.213 358.307L171.013 460.707C169.526 463.683 169.685 467.217 171.433 470.047C173.183 472.878 176.273 474.6 179.599 474.6H231.724L215.014 552.589C214.068 556.997 216.319 561.469 220.422 563.337C221.704 563.92 223.057 564.201 224.396 564.201C227.345 564.201 230.22 562.84 232.08 560.36L328.08 432.36C330.261 429.451 330.613 425.559 328.987 422.307Z" fill="#EEB900"/>
</svg>
