<svg width="175" height="29" viewBox="0 0 175 29" fill="none" xmlns="http://www.w3.org/2000/svg">
<path fill-rule="evenodd" clip-rule="evenodd" d="M17.3333 12.6875C19.9107 12.6875 22 10.6308 22 8.09375C22 5.55669 19.9107 3.5 17.3333 3.5C14.756 3.5 12.6667 5.55669 12.6667 8.09375C12.6667 10.6308 14.756 12.6875 17.3333 12.6875ZM10 12.6875C10 14.8621 8.20914 16.625 6 16.625C3.79086 16.625 2 14.8621 2 12.6875C2 10.5129 3.79086 8.75 6 8.75C8.20914 8.75 10 10.5129 10 12.6875ZM19.3333 21.2188C19.3333 23.0309 17.8409 24.5 16 24.5C14.1591 24.5 12.6667 23.0309 12.6667 21.2188C12.6667 19.4066 14.1591 17.9375 16 17.9375C17.8409 17.9375 19.3333 19.4066 19.3333 21.2188Z" fill="black"/>
<path d="M45.4 24C45.256 24 45.168 23.936 45.136 23.808L40.624 7.464L40.6 7.392C40.6 7.264 40.68 7.2 40.84 7.2H42.784C42.928 7.2 43.016 7.272 43.048 7.416L46.192 19.368C46.208 19.4 46.224 19.416 46.24 19.416C46.272 19.416 46.296 19.4 46.312 19.368L49.288 7.416C49.32 7.272 49.408 7.2 49.552 7.2H51.448C51.592 7.2 51.68 7.272 51.712 7.416L54.856 19.392C54.872 19.424 54.888 19.44 54.904 19.44C54.92 19.44 54.936 19.424 54.952 19.392L58.12 7.416C58.152 7.272 58.24 7.2 58.384 7.2H60.208C60.288 7.2 60.344 7.224 60.376 7.272C60.424 7.32 60.44 7.384 60.424 7.464L56.08 23.784C56.048 23.928 55.96 24 55.816 24H53.968C53.824 24 53.736 23.928 53.704 23.784L50.56 11.4C50.544 11.352 50.528 11.328 50.512 11.328C50.496 11.328 50.48 11.352 50.464 11.4L47.416 23.784C47.4 23.928 47.312 24 47.152 24H45.4ZM71.3727 16.368C71.4367 17.024 71.4607 17.76 71.4447 18.576C71.4447 18.736 71.3647 18.816 71.2047 18.816H63.5487C63.4847 18.816 63.4527 18.848 63.4527 18.912C63.4527 19.456 63.5007 19.872 63.5967 20.16C63.7727 20.8 64.1247 21.304 64.6527 21.672C65.1967 22.024 65.8767 22.2 66.6927 22.2C67.8767 22.2 68.7887 21.712 69.4287 20.736C69.5087 20.576 69.6127 20.552 69.7407 20.664L71.1087 21.576C71.2207 21.672 71.2447 21.776 71.1807 21.888C70.7327 22.608 70.0927 23.176 69.2607 23.592C68.4447 24.008 67.5167 24.216 66.4767 24.216C65.3087 24.216 64.3247 23.96 63.5247 23.448C62.7247 22.936 62.1247 22.208 61.7247 21.264C61.3407 20.32 61.1487 19.176 61.1487 17.832C61.1487 16.664 61.2367 15.776 61.4127 15.168C61.7007 14.064 62.2767 13.192 63.1407 12.552C64.0047 11.912 65.0527 11.592 66.2847 11.592C67.9007 11.592 69.1087 12 69.9087 12.816C70.7087 13.616 71.1967 14.8 71.3727 16.368ZM66.2847 13.584C65.5967 13.584 65.0287 13.76 64.5807 14.112C64.1327 14.448 63.8287 14.904 63.6687 15.48C63.5567 15.832 63.4847 16.28 63.4527 16.824C63.4527 16.888 63.4847 16.92 63.5487 16.92H69.0447C69.1087 16.92 69.1407 16.888 69.1407 16.824C69.1087 16.296 69.0607 15.904 68.9967 15.648C68.8367 15.024 68.5167 14.528 68.0367 14.16C67.5727 13.776 66.9887 13.584 66.2847 13.584ZM78.6987 11.592C79.6747 11.592 80.5227 11.768 81.2427 12.12C81.9787 12.456 82.5387 12.936 82.9227 13.56C83.3227 14.168 83.5227 14.864 83.5227 15.648V23.76C83.5227 23.92 83.4427 24 83.2827 24H81.4587C81.2987 24 81.2187 23.92 81.2187 23.76V22.896C81.2187 22.816 81.1787 22.8 81.0987 22.848C80.6827 23.28 80.1707 23.616 79.5627 23.856C78.9707 24.08 78.3067 24.192 77.5707 24.192C76.3867 24.192 75.4027 23.896 74.6187 23.304C73.8507 22.696 73.4667 21.784 73.4667 20.568C73.4667 19.32 73.8987 18.344 74.7627 17.64C75.6427 16.92 76.8667 16.56 78.4347 16.56H81.1227C81.1867 16.56 81.2187 16.528 81.2187 16.464V15.816C81.2187 15.112 81.0107 14.568 80.5947 14.184C80.1947 13.784 79.5787 13.584 78.7467 13.584C78.0747 13.584 77.5227 13.72 77.0907 13.992C76.6747 14.248 76.4187 14.6 76.3227 15.048C76.2747 15.208 76.1787 15.28 76.0347 15.264L74.0907 15C73.9307 14.968 73.8587 14.904 73.8747 14.808C74.0027 13.864 74.5067 13.096 75.3867 12.504C76.2667 11.896 77.3707 11.592 78.6987 11.592ZM78.0747 22.248C78.9227 22.248 79.6587 22.024 80.2827 21.576C80.9067 21.128 81.2187 20.56 81.2187 19.872V18.456C81.2187 18.392 81.1867 18.36 81.1227 18.36H78.8667C77.9227 18.36 77.1707 18.544 76.6107 18.912C76.0507 19.28 75.7707 19.792 75.7707 20.448C75.7707 21.04 75.9787 21.488 76.3947 21.792C76.8267 22.096 77.3867 22.248 78.0747 22.248ZM92.4931 13.44C92.4931 13.6 92.4131 13.68 92.2531 13.68H89.6611C89.5971 13.68 89.5651 13.712 89.5651 13.776V20.136C89.5651 20.808 89.7171 21.296 90.0211 21.6C90.3251 21.888 90.7971 22.032 91.4371 22.032H92.1331C92.2931 22.032 92.3731 22.112 92.3731 22.272V23.76C92.3731 23.92 92.2931 24 92.1331 24C91.6211 24.032 91.2531 24.048 91.0291 24.048C89.8131 24.048 88.8931 23.832 88.2691 23.4C87.6611 22.952 87.3571 22.136 87.3571 20.952V13.776C87.3571 13.712 87.3251 13.68 87.2611 13.68H85.7971C85.6371 13.68 85.5571 13.6 85.5571 13.44V12.024C85.5571 11.864 85.6371 11.784 85.7971 11.784H87.2611C87.3251 11.784 87.3571 11.752 87.3571 11.688V8.856C87.3571 8.696 87.4371 8.616 87.5971 8.616H89.3251C89.4851 8.616 89.5651 8.696 89.5651 8.856V11.688C89.5651 11.752 89.5971 11.784 89.6611 11.784H92.2531C92.4131 11.784 92.4931 11.864 92.4931 12.024V13.44ZM100.776 11.616C102.088 11.616 103.128 12 103.896 12.768C104.664 13.52 105.048 14.544 105.048 15.84V23.76C105.048 23.92 104.968 24 104.808 24H102.984C102.824 24 102.744 23.92 102.744 23.76V16.296C102.744 15.496 102.512 14.848 102.048 14.352C101.584 13.856 100.968 13.608 100.2 13.608C99.4484 13.608 98.8324 13.856 98.3524 14.352C97.8724 14.848 97.6324 15.488 97.6324 16.272V23.76C97.6324 23.92 97.5524 24 97.3924 24H95.5684C95.4084 24 95.3284 23.92 95.3284 23.76V7.44C95.3284 7.28 95.4084 7.2 95.5684 7.2H97.3924C97.5524 7.2 97.6324 7.28 97.6324 7.44V12.888C97.6324 12.92 97.6404 12.944 97.6564 12.96C97.6884 12.976 97.7124 12.968 97.7284 12.936C98.4164 12.056 99.4324 11.616 100.776 11.616ZM118.084 16.368C118.148 17.024 118.172 17.76 118.156 18.576C118.156 18.736 118.076 18.816 117.916 18.816H110.26C110.196 18.816 110.164 18.848 110.164 18.912C110.164 19.456 110.212 19.872 110.308 20.16C110.484 20.8 110.836 21.304 111.364 21.672C111.908 22.024 112.588 22.2 113.404 22.2C114.588 22.2 115.5 21.712 116.14 20.736C116.22 20.576 116.324 20.552 116.452 20.664L117.82 21.576C117.932 21.672 117.956 21.776 117.892 21.888C117.444 22.608 116.804 23.176 115.972 23.592C115.156 24.008 114.228 24.216 113.188 24.216C112.02 24.216 111.036 23.96 110.236 23.448C109.436 22.936 108.836 22.208 108.436 21.264C108.052 20.32 107.86 19.176 107.86 17.832C107.86 16.664 107.948 15.776 108.124 15.168C108.412 14.064 108.988 13.192 109.852 12.552C110.716 11.912 111.764 11.592 112.996 11.592C114.612 11.592 115.82 12 116.62 12.816C117.42 13.616 117.908 14.8 118.084 16.368ZM112.996 13.584C112.308 13.584 111.74 13.76 111.292 14.112C110.844 14.448 110.54 14.904 110.38 15.48C110.268 15.832 110.196 16.28 110.164 16.824C110.164 16.888 110.196 16.92 110.26 16.92H115.756C115.82 16.92 115.852 16.888 115.852 16.824C115.82 16.296 115.772 15.904 115.708 15.648C115.548 15.024 115.228 14.528 114.748 14.16C114.284 13.776 113.7 13.584 112.996 13.584ZM126.415 11.664C126.927 11.664 127.391 11.768 127.807 11.976C127.919 12.024 127.959 12.12 127.927 12.264L127.543 14.064C127.527 14.208 127.431 14.256 127.255 14.208C126.983 14.096 126.663 14.04 126.295 14.04L125.959 14.064C125.207 14.096 124.583 14.36 124.087 14.856C123.607 15.336 123.367 15.968 123.367 16.752V23.76C123.367 23.92 123.287 24 123.127 24H121.303C121.143 24 121.063 23.92 121.063 23.76V12.024C121.063 11.864 121.143 11.784 121.303 11.784H123.127C123.287 11.784 123.367 11.864 123.367 12.024V13.296C123.367 13.344 123.375 13.376 123.391 13.392C123.423 13.392 123.447 13.376 123.463 13.344C124.183 12.224 125.167 11.664 126.415 11.664ZM145.262 24C145.118 24 145.022 23.936 144.974 23.808L144.11 21C144.094 20.952 144.062 20.928 144.014 20.928H137.27C137.222 20.928 137.19 20.952 137.174 21L136.31 23.808C136.262 23.936 136.166 24 136.022 24H134.078C133.902 24 133.838 23.912 133.886 23.736L139.142 7.392C139.19 7.264 139.286 7.2 139.43 7.2H141.83C141.974 7.2 142.07 7.264 142.118 7.392L147.422 23.736L147.446 23.832C147.446 23.944 147.374 24 147.23 24H145.262ZM137.774 18.984C137.758 19.016 137.758 19.048 137.774 19.08C137.806 19.096 137.838 19.104 137.87 19.104H143.39C143.422 19.104 143.446 19.096 143.462 19.08C143.494 19.048 143.502 19.016 143.486 18.984L140.702 10.08C140.686 10.048 140.662 10.032 140.63 10.032C140.598 10.032 140.574 10.048 140.558 10.08L137.774 18.984ZM159.803 14.856C160.107 15.72 160.259 16.744 160.259 17.928C160.259 19.048 160.131 20.016 159.875 20.832C159.539 21.904 158.987 22.736 158.219 23.328C157.451 23.904 156.467 24.192 155.267 24.192C154.723 24.192 154.203 24.088 153.707 23.88C153.227 23.656 152.811 23.344 152.459 22.944C152.427 22.912 152.395 22.904 152.363 22.92C152.347 22.936 152.339 22.96 152.339 22.992V28.344C152.339 28.504 152.259 28.584 152.099 28.584H150.275C150.115 28.584 150.035 28.504 150.035 28.344V12.024C150.035 11.864 150.115 11.784 150.275 11.784H152.099C152.259 11.784 152.339 11.864 152.339 12.024V12.816C152.339 12.848 152.347 12.872 152.363 12.888C152.395 12.904 152.427 12.896 152.459 12.864C152.811 12.464 153.227 12.152 153.707 11.928C154.187 11.704 154.707 11.592 155.267 11.592C156.419 11.592 157.371 11.88 158.123 12.456C158.891 13.016 159.451 13.816 159.803 14.856ZM157.163 21.048C157.675 20.28 157.931 19.224 157.931 17.88C157.931 16.648 157.731 15.656 157.331 14.904C156.867 14.024 156.107 13.584 155.051 13.584C154.123 13.584 153.419 14.016 152.939 14.88C152.555 15.568 152.363 16.576 152.363 17.904C152.363 19.248 152.571 20.272 152.987 20.976C153.451 21.792 154.131 22.2 155.027 22.2C155.987 22.2 156.699 21.816 157.163 21.048ZM173.186 14.856C173.49 15.72 173.642 16.744 173.642 17.928C173.642 19.048 173.514 20.016 173.258 20.832C172.922 21.904 172.37 22.736 171.602 23.328C170.834 23.904 169.85 24.192 168.65 24.192C168.106 24.192 167.586 24.088 167.09 23.88C166.61 23.656 166.194 23.344 165.842 22.944C165.81 22.912 165.778 22.904 165.746 22.92C165.73 22.936 165.722 22.96 165.722 22.992V28.344C165.722 28.504 165.642 28.584 165.482 28.584H163.658C163.498 28.584 163.418 28.504 163.418 28.344V12.024C163.418 11.864 163.498 11.784 163.658 11.784H165.482C165.642 11.784 165.722 11.864 165.722 12.024V12.816C165.722 12.848 165.73 12.872 165.746 12.888C165.778 12.904 165.81 12.896 165.842 12.864C166.194 12.464 166.61 12.152 167.09 11.928C167.57 11.704 168.09 11.592 168.65 11.592C169.802 11.592 170.754 11.88 171.506 12.456C172.274 13.016 172.834 13.816 173.186 14.856ZM170.546 21.048C171.058 20.28 171.314 19.224 171.314 17.88C171.314 16.648 171.114 15.656 170.714 14.904C170.25 14.024 169.49 13.584 168.434 13.584C167.506 13.584 166.802 14.016 166.322 14.88C165.938 15.568 165.746 16.576 165.746 17.904C165.746 19.248 165.954 20.272 166.37 20.976C166.834 21.792 167.514 22.2 168.41 22.2C169.37 22.2 170.082 21.816 170.546 21.048Z" fill="black"/>
</svg>
