<svg width="13" height="12" viewBox="0 0 13 12" fill="none" xmlns="http://www.w3.org/2000/svg">
<path fill-rule="evenodd" clip-rule="evenodd" d="M1.28058 0.305288C1.46811 0.117817 1.72242 0.0125018 1.98758 0.0125018C2.25274 0.0125018 2.50705 0.117817 2.69458 0.305288L6.98758 4.59829L11.2806 0.305288C11.3728 0.209778 11.4832 0.133596 11.6052 0.0811869C11.7272 0.0287779 11.8584 0.00119157 11.9912 3.77571e-05C12.124 -0.00111606 12.2556 0.0241854 12.3785 0.0744663C12.5014 0.124747 12.6131 0.199 12.707 0.292893C12.8009 0.386786 12.8751 0.498438 12.9254 0.621334C12.9757 0.74423 13.001 0.87591 12.9998 1.00869C12.9987 1.14147 12.9711 1.27269 12.9187 1.39469C12.8663 1.5167 12.7901 1.62704 12.6946 1.71929L8.40158 6.01229L12.6946 10.3053C12.8767 10.4939 12.9775 10.7465 12.9753 11.0087C12.973 11.2709 12.8678 11.5217 12.6824 11.7071C12.497 11.8925 12.2462 11.9977 11.984 12C11.7218 12.0022 11.4692 11.9014 11.2806 11.7193L6.98758 7.42629L2.69458 11.7193C2.50598 11.9014 2.25337 12.0022 1.99118 12C1.72898 11.9977 1.47817 11.8925 1.29276 11.7071C1.10735 11.5217 1.00218 11.2709 0.999905 11.0087C0.997627 10.7465 1.09842 10.4939 1.28058 10.3053L5.57358 6.01229L1.28058 1.71929C1.09311 1.53176 0.987793 1.27745 0.987793 1.01229C0.987793 0.747124 1.09311 0.492816 1.28058 0.305288Z" fill="#222222"/>
</svg>
