<svg width="18" height="20" viewBox="0 0 18 20" fill="none" xmlns="http://www.w3.org/2000/svg">
<path d="M5 13.9998C4.44772 13.9998 4 14.4475 4 14.9998C4 15.5521 4.44772 15.9998 5 15.9998C5.55228 15.9998 6 15.5521 6 14.9998C6 14.4475 5.55228 13.9998 5 13.9998ZM5 13.9998L5.00707 10M5 14.9998L5.00707 15.0069M17 3C17 4.10457 16.1046 5 15 5C13.8954 5 13 4.10457 13 3C13 1.89543 13.8954 1 15 1C16.1046 1 17 1.89543 17 3ZM9 14.9998C9 17.209 7.2091 18.9998 5 18.9998C2.79086 18.9998 1 17.209 1 14.9998C1 13.9854 1.37764 13.0591 2 12.354V4C2 2.34315 3.34315 1 5 1C6.65685 1 8 2.34315 8 4V12.354C8.6224 13.0591 9 13.9854 9 14.9998Z" stroke="black" stroke-width="1.5" stroke-linecap="round" stroke-linejoin="round"/>
</svg>
