<svg width="18" height="18" viewBox="0 0 18 18" fill="none" xmlns="http://www.w3.org/2000/svg">
<path d="M6.92267 13.4444H11.0764M9 1V1.88889M14.6569 3.34311L14.0284 3.97156M17 9H16.1111M1.88889 9H1M3.97156 3.97156L3.34311 3.34311M5.85689 12.1431C5.23544 11.5215 4.81226 10.7296 4.64087 9.86747C4.46947 9.00536 4.55756 8.11179 4.89398 7.29974C5.2304 6.4877 5.80006 5.79364 6.53092 5.30533C7.26178 4.81702 8.12102 4.55638 9 4.55638C9.87898 4.55638 10.7382 4.81702 11.4691 5.30533C12.1999 5.79364 12.7696 6.4877 13.106 7.29974C13.4424 8.11179 13.5305 9.00536 13.3591 9.86747C13.1877 10.7296 12.7646 11.5215 12.1431 12.1431L11.656 12.6293C11.3775 12.9079 11.1566 13.2385 11.0059 13.6024C10.8553 13.9663 10.7777 14.3564 10.7778 14.7502V15.2222C10.7778 15.6937 10.5905 16.1459 10.2571 16.4793C9.92368 16.8127 9.4715 17 9 17C8.5285 17 8.07632 16.8127 7.74292 16.4793C7.40952 16.1459 7.22222 15.6937 7.22222 15.2222V14.7502C7.22222 13.9547 6.90578 13.1911 6.344 12.6293L5.85689 12.1431Z" stroke="black" stroke-width="2" stroke-linecap="round" stroke-linejoin="round"/>
</svg>
