<svg width="166" height="24" viewBox="0 0 166 24" fill="none" xmlns="http://www.w3.org/2000/svg">
<path fill-rule="evenodd" clip-rule="evenodd" d="M17.3333 10.1875C19.9107 10.1875 22 8.13081 22 5.59375C22 3.05669 19.9107 1 17.3333 1C14.756 1 12.6667 3.05669 12.6667 5.59375C12.6667 8.13081 14.756 10.1875 17.3333 10.1875ZM10 10.1875C10 12.3621 8.20914 14.125 6 14.125C3.79086 14.125 2 12.3621 2 10.1875C2 8.01288 3.79086 6.25 6 6.25C8.20914 6.25 10 8.01288 10 10.1875ZM19.3333 18.7188C19.3333 20.5309 17.8409 22 16 22C14.1591 22 12.6667 20.5309 12.6667 18.7188C12.6667 16.9066 14.1591 15.4375 16 15.4375C17.8409 15.4375 19.3333 16.9066 19.3333 18.7188Z" fill="black"/>
<path d="M36.824 20.5C36.68 20.5 36.592 20.428 36.56 20.284L32.696 3.964L32.672 3.868C32.672 3.756 32.744 3.7 32.888 3.7H34.184C34.328 3.7 34.416 3.772 34.448 3.916L37.376 16.804C37.392 16.852 37.408 16.876 37.424 16.876C37.456 16.876 37.48 16.852 37.496 16.804L40.16 3.916C40.192 3.772 40.28 3.7 40.424 3.7H41.624C41.784 3.7 41.872 3.772 41.888 3.916L44.648 16.804C44.664 16.852 44.68 16.876 44.696 16.876C44.712 16.876 44.728 16.852 44.744 16.804L47.6 3.916C47.632 3.772 47.72 3.7 47.864 3.7H49.112C49.272 3.7 49.336 3.788 49.304 3.964L45.56 20.284C45.528 20.428 45.44 20.5 45.296 20.5H44.072C43.928 20.5 43.84 20.428 43.808 20.284L41.072 7.204C41.056 7.156 41.04 7.132 41.024 7.132C41.008 7.132 40.992 7.156 40.976 7.204L38.264 20.284C38.248 20.428 38.16 20.5 38 20.5H36.824ZM61.0914 4.948C61.0914 5.108 61.0114 5.188 60.8514 5.188H53.6514C53.5874 5.188 53.5554 5.22 53.5554 5.284V11.236C53.5554 11.3 53.5874 11.332 53.6514 11.332H58.4994C58.6594 11.332 58.7394 11.412 58.7394 11.572V12.58C58.7394 12.74 58.6594 12.82 58.4994 12.82H53.6514C53.5874 12.82 53.5554 12.852 53.5554 12.916V18.916C53.5554 18.98 53.5874 19.012 53.6514 19.012H60.8514C61.0114 19.012 61.0914 19.092 61.0914 19.252V20.26C61.0914 20.42 61.0114 20.5 60.8514 20.5H52.0914C51.9314 20.5 51.8514 20.42 51.8514 20.26V3.94C51.8514 3.78 51.9314 3.7 52.0914 3.7H60.8514C61.0114 3.7 61.0914 3.78 61.0914 3.94V4.948ZM72.6671 20.5C72.5231 20.5 72.4351 20.428 72.4031 20.284L71.6111 17.284C71.5951 17.236 71.5551 17.212 71.4911 17.212H65.7551C65.6911 17.212 65.6511 17.236 65.6351 17.284L64.8431 20.284C64.8111 20.428 64.7231 20.5 64.5791 20.5H63.3311C63.2511 20.5 63.1871 20.476 63.1391 20.428C63.1071 20.38 63.0991 20.316 63.1151 20.236L67.6031 3.916C67.6351 3.772 67.7231 3.7 67.8671 3.7H69.4031C69.5471 3.7 69.6351 3.772 69.6671 3.916L74.1551 20.236L74.1791 20.308C74.1791 20.436 74.0991 20.5 73.9391 20.5H72.6671ZM66.0431 15.724C66.0271 15.74 66.0271 15.764 66.0431 15.796C66.0751 15.812 66.1071 15.82 66.1391 15.82H71.1071C71.1391 15.82 71.1631 15.812 71.1791 15.796C71.2111 15.764 71.2191 15.74 71.2031 15.724L68.6591 6.076C68.6431 6.044 68.6271 6.028 68.6111 6.028C68.5951 6.028 68.5791 6.044 68.5631 6.076L66.0431 15.724ZM83.978 3.7C84.138 3.7 84.218 3.78 84.218 3.94V4.948C84.218 5.108 84.138 5.188 83.978 5.188H80.066C80.002 5.188 79.97 5.22 79.97 5.284V20.26C79.97 20.42 79.89 20.5 79.73 20.5H78.506C78.346 20.5 78.266 20.42 78.266 20.26V5.284C78.266 5.22 78.234 5.188 78.17 5.188H74.402C74.242 5.188 74.162 5.108 74.162 4.948V3.94C74.162 3.78 74.242 3.7 74.402 3.7H83.978ZM94.9963 3.94C94.9963 3.78 95.0763 3.7 95.2363 3.7H96.4603C96.6203 3.7 96.7003 3.78 96.7003 3.94V20.26C96.7003 20.42 96.6203 20.5 96.4603 20.5H95.2363C95.0763 20.5 94.9963 20.42 94.9963 20.26V12.916C94.9963 12.852 94.9643 12.82 94.9003 12.82H88.9483C88.8843 12.82 88.8523 12.852 88.8523 12.916V20.26C88.8523 20.42 88.7723 20.5 88.6123 20.5H87.3883C87.2283 20.5 87.1483 20.42 87.1483 20.26V3.94C87.1483 3.78 87.2283 3.7 87.3883 3.7H88.6123C88.7723 3.7 88.8523 3.78 88.8523 3.94V11.236C88.8523 11.3 88.8843 11.332 88.9483 11.332H94.9003C94.9643 11.332 94.9963 11.3 94.9963 11.236V3.94ZM109.818 4.948C109.818 5.108 109.738 5.188 109.578 5.188H102.378C102.314 5.188 102.282 5.22 102.282 5.284V11.236C102.282 11.3 102.314 11.332 102.378 11.332H107.226C107.386 11.332 107.466 11.412 107.466 11.572V12.58C107.466 12.74 107.386 12.82 107.226 12.82H102.378C102.314 12.82 102.282 12.852 102.282 12.916V18.916C102.282 18.98 102.314 19.012 102.378 19.012H109.578C109.738 19.012 109.818 19.092 109.818 19.252V20.26C109.818 20.42 109.738 20.5 109.578 20.5H100.818C100.658 20.5 100.578 20.42 100.578 20.26V3.94C100.578 3.78 100.658 3.7 100.818 3.7H109.578C109.738 3.7 109.818 3.78 109.818 3.94V4.948ZM121.208 20.5C121.08 20.5 120.992 20.436 120.944 20.308L117.968 12.892C117.952 12.844 117.92 12.82 117.872 12.82H114.776C114.712 12.82 114.68 12.852 114.68 12.916V20.26C114.68 20.42 114.6 20.5 114.44 20.5H113.216C113.056 20.5 112.976 20.42 112.976 20.26V3.94C112.976 3.78 113.056 3.7 113.216 3.7H118.304C119.136 3.7 119.872 3.892 120.512 4.276C121.168 4.66 121.672 5.204 122.024 5.908C122.392 6.612 122.576 7.42 122.576 8.332C122.576 9.42 122.312 10.348 121.784 11.116C121.256 11.884 120.536 12.396 119.624 12.652C119.56 12.684 119.544 12.724 119.576 12.772L122.672 20.212L122.696 20.308C122.696 20.436 122.624 20.5 122.48 20.5H121.208ZM114.776 5.188C114.712 5.188 114.68 5.22 114.68 5.284V11.356C114.68 11.42 114.712 11.452 114.776 11.452H118.088C118.92 11.452 119.592 11.164 120.104 10.588C120.616 10.012 120.872 9.26 120.872 8.332C120.872 7.388 120.616 6.628 120.104 6.052C119.592 5.476 118.92 5.188 118.088 5.188H114.776ZM138.597 20.5C138.453 20.5 138.365 20.428 138.333 20.284L137.541 17.284C137.525 17.236 137.485 17.212 137.421 17.212H131.685C131.621 17.212 131.581 17.236 131.565 17.284L130.773 20.284C130.741 20.428 130.653 20.5 130.509 20.5H129.261C129.181 20.5 129.117 20.476 129.069 20.428C129.037 20.38 129.029 20.316 129.045 20.236L133.533 3.916C133.565 3.772 133.653 3.7 133.797 3.7H135.333C135.477 3.7 135.565 3.772 135.597 3.916L140.085 20.236L140.109 20.308C140.109 20.436 140.029 20.5 139.869 20.5H138.597ZM131.973 15.724C131.957 15.74 131.957 15.764 131.973 15.796C132.005 15.812 132.037 15.82 132.069 15.82H137.037C137.069 15.82 137.093 15.812 137.109 15.796C137.141 15.764 137.149 15.74 137.133 15.724L134.589 6.076C134.573 6.044 134.557 6.028 134.541 6.028C134.525 6.028 134.509 6.044 134.493 6.076L131.973 15.724ZM147.928 3.676C149.208 3.676 150.24 4.108 151.024 4.972C151.824 5.82 152.224 6.948 152.224 8.356C152.224 9.748 151.824 10.868 151.024 11.716C150.24 12.548 149.208 12.964 147.928 12.964H144.352C144.288 12.964 144.256 12.996 144.256 13.06V20.26C144.256 20.42 144.176 20.5 144.016 20.5H142.792C142.632 20.5 142.552 20.42 142.552 20.26V3.916C142.552 3.756 142.632 3.676 142.792 3.676H147.928ZM147.712 11.548C148.56 11.548 149.24 11.26 149.752 10.684C150.264 10.108 150.52 9.34 150.52 8.38C150.52 7.404 150.264 6.628 149.752 6.052C149.24 5.46 148.56 5.164 147.712 5.164H144.352C144.288 5.164 144.256 5.196 144.256 5.26V11.452C144.256 11.516 144.288 11.548 144.352 11.548H147.712ZM160.327 3.676C161.607 3.676 162.639 4.108 163.423 4.972C164.223 5.82 164.623 6.948 164.623 8.356C164.623 9.748 164.223 10.868 163.423 11.716C162.639 12.548 161.607 12.964 160.327 12.964H156.751C156.687 12.964 156.655 12.996 156.655 13.06V20.26C156.655 20.42 156.575 20.5 156.415 20.5H155.191C155.031 20.5 154.951 20.42 154.951 20.26V3.916C154.951 3.756 155.031 3.676 155.191 3.676H160.327ZM160.111 11.548C160.959 11.548 161.639 11.26 162.151 10.684C162.663 10.108 162.919 9.34 162.919 8.38C162.919 7.404 162.663 6.628 162.151 6.052C161.639 5.46 160.959 5.164 160.111 5.164H156.751C156.687 5.164 156.655 5.196 156.655 5.26V11.452C156.655 11.516 156.687 11.548 156.751 11.548H160.111Z" fill="black"/>
</svg>
