<svg width="426" height="469" viewBox="0 0 426 469" fill="none" xmlns="http://www.w3.org/2000/svg">
<path d="M13 123.111L90.7778 167.556M90.7778 167.556L213 234.222M90.7778 167.556L13 189.778M90.7778 167.556L79.6667 89.7778M413 345.333L335.222 300.889M335.222 300.889L213 234.222M335.222 300.889L346.333 378.667M335.222 300.889L413 278.667M213 234.222L90.7778 300.889M213 234.222V78.6667M213 234.222V378.667M213 234.222L335.222 167.556M90.7778 300.889L13 345.333M90.7778 300.889L13 278.667M90.7778 300.889L79.6667 378.667M213 78.6667V12M213 78.6667L157.444 56.4444M213 78.6667L268.556 56.4444M213 378.667V456.444M213 378.667L268.556 412M213 378.667L157.444 412M335.222 167.556L413 123.111M335.222 167.556L413 189.778M335.222 167.556L346.333 89.7778" stroke="#E9EDF4" stroke-width="24" stroke-linecap="round" stroke-linejoin="round"/>
</svg>
