<svg width="400" height="400" viewBox="0 0 400 400" fill="none" xmlns="http://www.w3.org/2000/svg">
<path d="M260.154 0C341.388 27.2494 400 103.856 400 194.344C400 307.969 307.969 400 194.344 400C103.856 400 27.2494 341.388 0 260.154C20.5656 266.838 42.6735 271.465 65.8098 271.465C179.434 271.465 271.465 179.434 271.465 65.8098C271.465 42.6735 267.352 20.5656 260.154 0Z" fill="#BCD8F3"/>
<path d="M253.49 400C253.49 400 224.475 400.032 220.401 371.642C218.462 340.598 248.449 334.48 248.449 334.48C248.449 334.48 245.038 288.523 287.141 283.283C323.226 279.598 334.206 313.134 334.206 313.134C334.206 313.134 345.076 302.684 359.82 311.22C373.019 319.368 370.685 334.285 370.685 334.285C370.685 334.285 400 339.983 400 369.86C399.343 399.7 368.162 400 368.162 400" fill="#E9EDF4"/>
<path d="M44.3151 237.27C44.3151 237.27 5.56142 237.312 0.120461 199.394C-2.47014 157.93 37.5823 149.758 37.5823 149.758C37.5823 149.758 33.026 88.3773 89.2609 81.3778C137.457 76.4563 152.123 121.248 152.123 121.248C152.123 121.248 166.642 107.291 186.335 118.692C203.963 129.574 200.846 149.499 200.846 149.499C200.846 149.499 240 157.109 240 197.014C239.122 236.87 197.476 237.27 197.476 237.27" fill="#E9EDF4"/>
</svg>
