<svg width="668" height="668" viewBox="0 0 668 668" fill="none" xmlns="http://www.w3.org/2000/svg">
<path fill-rule="evenodd" clip-rule="evenodd" d="M200.667 334C200.667 260.362 260.362 200.667 334 200.667C407.637 200.667 467.333 260.362 467.333 334C467.333 407.637 407.637 467.333 334 467.333C260.362 467.333 200.667 407.637 200.667 334Z" fill="#323232"/>
<path fill-rule="evenodd" clip-rule="evenodd" d="M334 0.666748C352.41 0.666748 367.333 15.5907 367.333 34.0001V100.667C367.333 119.076 352.41 134 334 134C315.59 134 300.667 119.076 300.667 100.667V34.0001C300.667 15.5907 315.59 0.666748 334 0.666748Z" fill="#323232"/>
<path fill-rule="evenodd" clip-rule="evenodd" d="M590.903 77.0964C603.92 90.1141 603.92 111.219 590.903 124.237L524.237 190.904C511.22 203.921 490.113 203.921 477.097 190.904C464.08 177.886 464.08 156.781 477.097 143.763L543.763 77.0964C556.78 64.0791 577.887 64.0791 590.903 77.0964Z" fill="#323232"/>
<path fill-rule="evenodd" clip-rule="evenodd" d="M534 334C534 315.59 548.923 300.667 567.333 300.667H634C652.41 300.667 667.333 315.59 667.333 334C667.333 352.41 652.41 367.333 634 367.333H567.333C548.923 367.333 534 352.41 534 334Z" fill="#323232"/>
<path fill-rule="evenodd" clip-rule="evenodd" d="M477.097 477.097C490.113 464.08 511.22 464.08 524.237 477.097L590.903 543.763C603.92 556.78 603.92 577.887 590.903 590.903C577.887 603.92 556.78 603.92 543.763 590.903L477.097 524.237C464.08 511.22 464.08 490.113 477.097 477.097Z" fill="#323232"/>
<path fill-rule="evenodd" clip-rule="evenodd" d="M334 534C352.41 534 367.333 548.923 367.333 567.333V634C367.333 652.41 352.41 667.333 334 667.333C315.59 667.333 300.667 652.41 300.667 634V567.333C300.667 548.923 315.59 534 334 534Z" fill="#323232"/>
<path fill-rule="evenodd" clip-rule="evenodd" d="M190.904 477.097C203.921 490.113 203.921 511.22 190.904 524.237L124.237 590.903C111.219 603.92 90.1141 603.92 77.0964 590.903C64.0791 577.887 64.0791 556.78 77.0964 543.763L143.763 477.097C156.781 464.08 177.886 464.08 190.904 477.097Z" fill="#323232"/>
<path fill-rule="evenodd" clip-rule="evenodd" d="M0.666748 334C0.666748 315.59 15.5907 300.667 34.0001 300.667H100.667C119.076 300.667 134 315.59 134 334C134 352.41 119.076 367.333 100.667 367.333H34.0001C15.5907 367.333 0.666748 352.41 0.666748 334Z" fill="#323232"/>
<path fill-rule="evenodd" clip-rule="evenodd" d="M77.0964 77.0964C90.1141 64.0791 111.219 64.0791 124.237 77.0964L190.904 143.763C203.921 156.781 203.921 177.886 190.904 190.904C177.886 203.921 156.781 203.921 143.763 190.904L77.0964 124.237C64.0791 111.219 64.0791 90.1141 77.0964 77.0964Z" fill="#323232"/>
</svg>
