<svg width="18" height="19" viewBox="0 0 18 19" fill="none" xmlns="http://www.w3.org/2000/svg">
<path d="M8.1 0C12.5735 0 16.2 3.64568 16.2 8.14286C16.2 10.3032 15.3631 12.267 13.9975 13.7247C14.0169 13.735 14.0344 13.7477 14.0516 13.7612L14.1364 13.8364L17.7364 17.4555C18.0879 17.8088 18.0879 18.3817 17.7364 18.735C17.412 19.0612 16.9015 19.0862 16.5484 18.8103L16.4636 18.735L12.8636 15.116C12.7865 15.0384 12.7263 14.9504 12.683 14.8564C11.3811 15.7581 9.80184 16.2857 8.1 16.2857C3.62649 16.2857 0 12.64 0 8.14286C0 3.64568 3.62649 0 8.1 0ZM8.1 1.80952C4.62061 1.80952 1.8 4.64505 1.8 8.14286C1.8 11.6407 4.62061 14.4762 8.1 14.4762C11.5794 14.4762 14.4 11.6407 14.4 8.14286C14.4 4.64505 11.5794 1.80952 8.1 1.80952Z" fill="#888888"/>
</svg>
