<svg width="400" height="473" viewBox="0 0 400 473" fill="none" xmlns="http://www.w3.org/2000/svg">
<path fill-rule="evenodd" clip-rule="evenodd" d="M237.885 157.431C194.134 173.73 74.8665 246.858 48.2325 292.989C21.5937 339.129 37.4097 398.129 83.5411 424.763C129.673 451.397 188.676 435.594 215.315 389.454C241.949 343.323 245.395 202.535 237.885 157.431Z" fill="#166EBF"/>
<path fill-rule="evenodd" clip-rule="evenodd" d="M366.583 124.164C349.083 130.683 301.376 159.934 290.722 178.387C280.067 196.843 286.393 220.443 304.846 231.096C323.298 241.75 346.9 235.429 357.555 216.973C368.209 198.52 369.587 142.205 366.583 124.164Z" fill="#166EBF"/>
<path fill-rule="evenodd" clip-rule="evenodd" d="M142.731 28.9395C116.48 38.719 44.9199 82.5954 28.9396 110.274C12.9563 137.958 22.4459 173.358 50.1247 189.338C77.8036 205.319 113.206 195.837 129.189 168.153C145.169 140.474 147.237 56.0017 142.731 28.9395Z" fill="#166EBF"/>
</svg>
