<svg width="805" height="466" viewBox="0 0 805 466" fill="none" xmlns="http://www.w3.org/2000/svg">
<path fill-rule="evenodd" clip-rule="evenodd" d="M443.24 92.4743C308.246 109.274 319.194 256.566 319.194 256.566C319.194 256.566 223.08 276.223 229.32 375.72C245.434 466.874 333.914 465.846 333.914 465.846L703.583 464.863C703.583 464.863 802.417 467.286 805 370.006C805 274.211 711.057 255.949 711.057 255.949C711.057 255.949 718.554 208.154 676.246 182.029C628.977 154.669 594.143 188.177 594.143 188.177C594.143 188.177 558.943 80.6571 443.24 92.4743Z" fill="#E9EDF4"/>
<path d="M90.6229 165.16C90.6229 165.16 79.6743 17.8686 214.646 1.04573C330.349 -10.7714 366.966 98.1657 366.966 98.1657C366.966 98.1657 299.56 137.274 296.703 242.989C253.846 255.857 208.177 291.217 206.737 374.074L105.343 374.44C105.343 374.44 16.8628 375.469 0.748535 284.314C-5.49147 184.771 90.6229 165.16 90.6229 165.16Z" fill="#B0B4BB"/>
</svg>
