<svg width="800" height="800" viewBox="0 0 800 800" fill="none" xmlns="http://www.w3.org/2000/svg">
<path d="M400.001 146.206C415.069 145.87 427.121 133.481 427.121 116.071V33.7058C427.121 16.2943 415.069 3.90576 400.001 3.90576C384.934 3.90576 372.881 16.2943 372.881 33.7058V116.071C372.881 133.481 384.934 146.54 400.001 146.206ZM572.769 217.523C583.483 227.901 600.894 227.901 613.283 215.849L671.539 157.59C683.93 144.866 683.594 127.79 673.219 117.076C662.837 106.696 645.427 106.361 633.036 118.75L574.779 177.009C562.39 189.397 562.054 207.143 572.769 217.523ZM186.72 215.849C199.109 227.901 217.189 228.237 227.234 217.523C237.613 206.809 237.613 189.397 225.56 177.009L167.301 118.75C154.577 106.361 137.501 106.696 127.121 117.076C116.407 127.79 116.073 144.866 128.461 157.59L186.72 215.849ZM85.27 538.951H765.29C777.009 538.951 786.383 529.576 786.383 517.523C786.383 505.469 777.009 496.429 765.29 496.429H545.984C568.081 466.629 581.474 429.799 581.474 389.956C581.474 290.849 499.109 208.147 400.001 208.147C300.894 208.147 218.529 290.849 218.529 389.956C218.529 429.799 231.921 466.629 254.02 496.429H85.27C73.55 496.429 64.1758 505.469 64.1758 517.523C64.1758 529.576 73.55 538.951 85.27 538.951ZM43.4172 409.04H125.783C143.194 409.04 156.251 396.651 155.917 381.584C155.581 366.853 143.194 354.464 125.783 354.464H43.4172C26.34 354.464 13.6172 366.853 13.6172 381.584C13.6172 396.651 26.34 409.04 43.4172 409.04ZM674.22 409.04H756.589C773.999 409.04 786.383 396.651 786.383 381.584C786.383 366.853 773.999 354.464 756.589 354.464H674.22C656.81 354.464 643.754 366.853 644.09 381.584C644.419 396.651 656.81 409.04 674.22 409.04ZM34.7115 667.523H714.731C726.787 667.523 735.824 658.481 735.824 646.429C735.824 634.374 726.787 625 714.731 625H34.7115C22.9929 625 13.6172 634.374 13.6172 646.429C13.6172 658.481 22.9929 667.523 34.7115 667.523ZM85.27 796.094H765.29C777.009 796.094 786.383 787.053 786.383 775C786.383 762.946 777.009 753.906 765.29 753.906H85.27C73.55 753.906 64.1758 762.946 64.1758 775C64.1758 787.053 73.55 796.094 85.27 796.094Z" fill="#FF9E0D"/>
</svg>
