<svg width="664" height="664" viewBox="0 0 664 664" fill="none" xmlns="http://www.w3.org/2000/svg">
<path fill-rule="evenodd" clip-rule="evenodd" d="M208.376 4.68276C242.113 -10.4349 271.34 23.7151 260.786 53.3661C224.975 153.976 246.977 268.247 321.31 342.55C396.02 417.233 511.047 439.183 611.983 402.73C641.353 392.123 674.577 421.063 660.057 453.997C659.627 454.97 659.193 455.94 658.757 456.913C632.913 514.22 591.573 568.113 538.09 604.247C481.083 642.76 413.857 663.337 345.053 663.337H345.02C265.012 663.25 187.523 635.343 125.839 584.403C64.1543 533.463 22.115 462.657 6.93102 384.123C-8.25298 305.59 4.36468 224.224 42.62 153.972C78.886 87.3738 139.869 35.6194 207.384 5.12876L208.376 4.68276Z" fill="#ADB2C5"/>
</svg>
