<svg width="668" height="534" viewBox="0 0 668 534" fill="none" xmlns="http://www.w3.org/2000/svg">
<path d="M153.669 0.370734C180.17 1.79245 205.902 9.42969 229.105 22.826C264.275 43.1312 289.399 74.1536 302.735 109.386C235.799 128.45 188.115 177.432 168.954 243.527L167.424 249.074L165.498 257.002L158.621 258.284C120.436 266.298 87.338 288.333 65.013 318.816L59.8654 315.957C37.9481 303.301 19.3424 286.119 5.12774 265.478C-4.18857 251.948 1.83866 233.261 17.3063 227.725C72.0535 208.131 101.551 186.079 118.421 153.873C136.846 118.704 140.25 81.4044 128.017 31.2919C124.04 14.9919 136.915 -0.528185 153.669 0.370734Z" fill="#ADB2C5"/>
<path d="M367.352 133.828C472.969 133.828 532.885 203.737 541.598 288.165L544.264 288.165C612.233 288.165 667.333 343.122 667.333 410.916C667.333 478.709 612.233 533.667 544.264 533.667H190.44C122.47 533.667 67.3703 478.709 67.3703 410.916C67.3703 343.122 122.47 288.165 190.44 288.165L193.105 288.165C201.87 203.182 261.734 133.828 367.352 133.828Z" fill="#E9EDF4"/>
</svg>
