<svg width="684" height="554" viewBox="0 0 684 554" fill="none" xmlns="http://www.w3.org/2000/svg">
<path d="M311.685 130.818C248.328 151.147 203.205 199.006 184.677 262.851L183.111 268.525L181.188 276.453L174.319 277.735C154.031 281.998 135.181 290.228 118.623 301.586C115.679 296.539 113.045 291.234 110.748 285.687C82.9794 218.648 114.814 141.792 181.853 114.024C226.594 95.4916 275.708 103.507 311.685 130.818Z" fill="#FFC90D"/>
<path d="M360.194 23.5941C372.729 32.3715 376.25 49.2239 368.65 62.2004L367.357 64.2154L353.017 84.6942C343.778 97.8893 325.591 101.096 312.396 91.8568C299.861 83.0794 296.34 66.227 303.94 53.2505L305.233 51.2356L319.573 30.7568C328.812 17.5616 346.999 14.3548 360.194 23.5941Z" fill="#FFC90D"/>
<path d="M188.663 16.6051L189.749 19.199L198.299 42.6913C203.809 57.8282 196.004 74.5652 180.867 80.0746C166.621 85.2599 150.957 78.6515 144.57 65.2364L143.484 62.6425L134.933 39.1502C129.424 24.0133 137.229 7.27627 152.365 1.7669C166.612 -3.41838 182.276 3.19004 188.663 16.6051Z" fill="#FFC90D"/>
<path d="M41.6827 119.628L43.8916 120.551L66.5492 131.117C81.1483 137.924 87.4645 155.278 80.6569 169.877C74.1896 183.746 58.2046 190.14 44.1054 184.908L41.8965 183.985L19.2388 173.419C4.63974 166.612 -1.67645 149.258 5.13121 134.659C11.5985 120.79 27.5835 114.396 41.6827 119.628Z" fill="#FFC90D"/>
<path d="M76.0812 289.821C83.6616 302.95 79.8736 319.524 67.7714 328.143L65.4055 329.663L43.7549 342.163C29.8047 350.217 11.9666 345.438 3.91246 331.488C-3.66792 318.358 0.120092 301.784 12.2223 293.165L14.5882 291.645L36.2388 279.145C50.189 271.091 68.0271 275.871 76.0812 289.821Z" fill="#FFC90D"/>
<path d="M383.194 153.278C488.812 153.278 548.727 223.188 557.441 307.616L560.106 307.616C628.076 307.616 683.176 362.573 683.176 430.367C683.176 498.16 628.076 553.118 560.106 553.118H206.282C138.313 553.118 83.2126 498.16 83.2126 430.367C83.2126 362.573 138.313 307.616 206.283 307.616L208.947 307.616C217.712 222.633 277.576 153.278 383.194 153.278Z" fill="#E9EDF4"/>
</svg>
