<svg width="726" height="751" viewBox="0 0 726 751" fill="none" xmlns="http://www.w3.org/2000/svg">
<path d="M675.906 193.766C649.703 167.625 614.703 149.375 574.078 140.641C570.27 139.821 566.705 138.123 563.67 135.681C560.634 133.239 558.211 130.122 556.594 126.578C541.654 93.9487 519.036 65.4223 490.672 43.4374C454.375 15.6718 410.234 0.999885 363 0.999885C309.177 0.829027 257.174 20.4735 216.906 56.1874C179.094 89.8749 152.984 136.406 141.234 190.297C140.255 194.858 138.021 199.056 134.786 202.418C131.551 205.78 127.442 208.173 122.922 209.328C83.8594 219.172 67.125 228.922 46.0312 247.703C16.125 274.328 0.5 310.594 0.5 352.25C0.5 399.984 18.0469 439.187 51.2344 465.625C80.3125 488.765 120.031 501 166.125 501H531.75C583.625 501 631.922 483.094 667.688 450.562C704.938 416.734 725.5 369.828 725.5 318.5C725.5 269.297 708.312 226.172 675.906 193.766Z" fill="#E9EDF4"/>
<path d="M138 676C133.476 675.997 129.037 674.767 125.156 672.44C121.276 670.112 118.1 666.776 115.967 662.786C113.834 658.796 112.824 654.301 113.045 649.782C113.265 645.263 114.708 640.889 117.219 637.125L167.219 562.125C169.041 559.394 171.383 557.048 174.112 555.222C176.84 553.397 179.902 552.126 183.121 551.483C186.341 550.84 189.655 550.838 192.876 551.476C196.096 552.115 199.16 553.381 201.891 555.203C204.622 557.025 206.967 559.367 208.793 562.096C210.619 564.824 211.89 567.886 212.532 571.105C213.175 574.325 213.177 577.64 212.539 580.86C211.901 584.081 210.635 587.144 208.813 589.875L158.813 664.875C156.528 668.3 153.432 671.107 149.802 673.048C146.171 674.988 142.117 676.003 138 676Z" fill="#1F7BCF"/>
<path d="M213 751C208.477 750.994 204.04 749.762 200.162 747.433C196.284 745.105 193.111 741.768 190.979 737.779C188.848 733.789 187.839 729.296 188.06 724.778C188.281 720.261 189.724 715.887 192.234 712.125L292.234 562.125C294.056 559.394 296.399 557.048 299.127 555.222C301.856 553.397 304.917 552.126 308.137 551.483C311.356 550.84 314.671 550.838 317.891 551.476C321.112 552.115 324.175 553.381 326.906 555.203C329.637 557.025 331.983 559.367 333.809 562.096C335.635 564.824 336.905 567.886 337.548 571.105C338.191 574.325 338.193 577.64 337.555 580.86C336.917 584.081 335.65 587.144 333.828 589.875L233.828 739.875C231.542 743.302 228.444 746.111 224.81 748.051C221.177 749.992 217.12 751.005 213 751Z" fill="#1F7BCF"/>
<path d="M388 676C383.476 675.997 379.037 674.767 375.156 672.44C371.276 670.112 368.1 666.776 365.967 662.786C363.834 658.796 362.824 654.301 363.045 649.782C363.265 645.263 364.708 640.889 367.219 637.125L417.219 562.125C420.899 556.609 426.619 552.781 433.121 551.483C439.623 550.185 446.375 551.523 451.891 555.203C457.406 558.883 461.234 564.603 462.532 571.105C463.83 577.608 462.492 584.359 458.813 589.875L408.813 664.875C406.528 668.3 403.432 671.107 399.802 673.048C396.171 674.988 392.117 676.003 388 676Z" fill="#1F7BCF"/>
<path d="M463 751C458.476 750.997 454.037 749.767 450.156 747.44C446.276 745.112 443.1 741.776 440.967 737.786C438.834 733.796 437.824 729.301 438.045 724.782C438.265 720.263 439.708 715.889 442.219 712.125L542.219 562.125C545.899 556.609 551.619 552.781 558.121 551.483C564.623 550.185 571.375 551.523 576.891 555.203C582.406 558.883 586.234 564.603 587.532 571.105C588.83 577.608 587.492 584.359 583.812 589.875L483.813 739.875C481.528 743.3 478.432 746.107 474.802 748.048C471.171 749.988 467.117 751.003 463 751Z" fill="#1F7BCF"/>
</svg>
