<svg width="800" height="890" viewBox="0 0 800 890" fill="none" xmlns="http://www.w3.org/2000/svg">
<path d="M587.5 550.003H181.25C130.672 550.003 87.1406 536.612 55.3281 511.299C19.125 482.471 0 439.674 0 387.503C0 297.549 65.625 245.971 136.812 230.081C141.495 229.014 145.771 226.621 149.13 223.187C152.488 219.754 154.786 215.426 155.75 210.721C167.75 153.409 193.953 104.237 232.594 66.9713C277.568 23.7348 337.614 -0.285754 400 0.00256582C455.469 0.00256582 506.625 18.2682 547.937 52.8151C576.177 76.6345 598.642 106.553 613.641 140.315C615.254 143.939 617.707 147.127 620.796 149.616C623.885 152.105 627.522 153.823 631.406 154.628C673.594 163.393 711.203 181.706 739.5 207.518C779.078 243.565 800 292.846 800 350.003C800 406.253 777.531 457.628 736.734 494.674C697.438 530.362 644.437 550.003 587.5 550.003Z" fill="#B0B4BB"/>
<path d="M180 698L222 722M222 722L288 758M222 722L180 734M222 722L216 680M396 818L354 794M354 794L288 758M354 794L360 836M354 794L396 782M288 758L222 794M288 758V674M288 758V836M288 758L354 722M222 794L180 818M222 794L180 782M222 794L216 836M288 674V638M288 674L258 662M288 674L318 662M288 836V878M288 836L318 854M288 836L258 854M354 722L396 698M354 722L396 734M354 722L360 680" stroke="#E9EDF4" stroke-width="24" stroke-linecap="round" stroke-linejoin="round"/>
<path d="M476 638L504 654M504 654L548 678M504 654L476 662M504 654L500 626M620 718L592 702M592 702L548 678M592 702L596 730M592 702L620 694M548 678L504 702M548 678V622M548 678V730M548 678L592 654M504 702L476 718M504 702L476 694M504 702L500 730M548 622V598M548 622L528 614M548 622L568 614M548 730V758M548 730L568 742M548 730L528 742M592 654L620 638M592 654L620 662M592 654L596 626" stroke="#E9EDF4" stroke-width="16" stroke-linecap="round" stroke-linejoin="round"/>
</svg>
