<svg width="800" height="800" viewBox="0 0 800 800" fill="none" xmlns="http://www.w3.org/2000/svg">
<g clip-path="url(#clip0_129_3384)">
<path fill-rule="evenodd" clip-rule="evenodd" d="M361.867 553.728C357.919 556.165 354.728 559.653 352.65 563.8L302.65 663.8C300.74 667.611 299.837 671.848 300.025 676.107C300.214 680.366 301.489 684.506 303.729 688.134C305.968 691.761 309.098 694.756 312.821 696.833C316.544 698.91 320.737 700 325 700H368L350.75 768.95C349.391 774.475 349.956 780.299 352.354 785.459C354.752 790.619 358.838 794.806 363.938 797.33C369.038 799.853 374.845 800.562 380.402 799.338C385.959 798.115 390.932 795.032 394.5 790.6L494.5 665.6C497.436 661.924 499.274 657.494 499.805 652.82C500.336 648.146 499.537 643.417 497.5 639.176C495.463 634.936 492.271 631.356 488.291 628.848C484.311 626.341 479.704 625.007 475 625H434.7L448.7 582.9C449.951 579.144 450.292 575.144 449.695 571.23C449.098 567.316 447.58 563.6 445.266 560.388C442.952 557.175 439.908 554.558 436.384 552.752C432.861 550.946 428.959 550.003 425 550H375C370.361 550 365.814 551.291 361.867 553.728Z" fill="#FFC90D"/>
<path d="M670.25 201.35C659.867 149.008 633.011 101.361 593.61 65.374C554.209 29.3874 504.328 6.94933 451.262 1.34047C398.196 -4.26839 344.727 7.24615 298.673 34.2005C252.619 61.1549 216.396 102.135 195.3 151.15C171.642 148.425 147.676 150.557 124.871 157.415C102.065 164.274 80.8998 175.716 62.6699 191.039C44.44 206.362 29.5294 225.245 18.8511 246.531C8.17281 267.818 1.95148 291.06 0.568016 314.834C-0.815443 338.608 2.66808 362.415 10.8053 384.796C18.9425 407.177 31.5622 427.662 47.8918 444.997C64.2213 462.331 83.917 476.15 105.773 485.608C127.629 495.066 151.185 499.963 175 500H650C688.056 500.044 724.705 485.621 752.524 459.654C780.344 433.686 797.253 398.116 799.828 360.148C802.402 322.179 790.449 284.652 766.39 255.167C742.33 225.682 707.963 206.444 670.25 201.35Z" fill="#E9EDF4"/>
</g>
<defs>
<clipPath id="clip0_129_3384">
<rect width="800" height="800" fill="white"/>
</clipPath>
</defs>
</svg>
