<svg width="668" height="501" viewBox="0 0 668 501" fill="none" xmlns="http://www.w3.org/2000/svg">
<path d="M367.39 100.63C473.007 100.63 532.923 170.54 541.636 254.968L544.302 254.968C612.271 254.968 667.371 309.925 667.371 377.719C667.371 445.512 612.271 500.469 544.302 500.469H190.478C122.508 500.469 67.4082 445.512 67.4082 377.719C67.4082 311.281 120.326 257.171 186.416 255.033L193.143 254.968C201.908 169.985 261.772 100.63 367.39 100.63ZM367.39 142.217C296.372 142.217 234.472 199.682 234.472 279.059C234.472 291.637 223.537 301.506 211.015 301.505L187.339 301.504C144.104 301.504 109.056 336.735 109.056 380.194C109.056 423.653 144.104 458.883 187.339 458.883H547.441C590.675 458.883 625.724 423.653 625.724 380.194C625.724 336.735 590.675 301.504 547.441 301.504L523.764 301.505C511.243 301.506 500.307 291.637 500.307 279.059C500.307 198.664 438.407 142.217 367.39 142.217ZM267.333 0.333374C321.084 0.333374 368.724 27.3641 397.115 68.7399C387.482 67.5876 377.549 67 367.333 67C357.919 67 348.746 67.4953 339.831 68.4631C320.135 51.4887 294.749 41.359 267.333 41.359C212.596 41.359 165.952 81.7382 156.609 136.292L151.384 166.797C150.014 174.8 143.075 180.65 134.956 180.65L102.508 180.649C68.1238 180.649 40.2501 209.163 40.2501 244.337C40.2501 262.768 47.903 279.37 60.1355 291C52.9568 301.734 47.0828 313.437 42.7336 325.863C17.1298 305.863 0.666748 274.679 0.666748 239.65C0.666748 179.229 49.6476 130.248 110.069 130.248L112.438 130.248C125.411 56.2037 190.057 0.333374 267.333 0.333374Z" fill="#212121"/>
</svg>
