<svg width="801" height="800" viewBox="0 0 801 800" fill="none" xmlns="http://www.w3.org/2000/svg">
<path fill-rule="evenodd" clip-rule="evenodd" d="M399.611 719.922C295.547 719.922 202.334 669.907 143.675 592.109C408.9 646.364 646.818 411.019 592.124 143.672C669.921 202.331 719.931 295.526 719.931 399.59C719.931 576.207 576.228 719.922 399.611 719.922ZM424.436 0C483.055 54.7748 519.731 132.807 519.731 219.414C519.731 492.967 184.356 621.692 0.0117188 424.375C12.8245 633.985 186.799 800 399.611 800C620.752 800 800.012 620.731 800.012 399.59C800.012 186.777 634.006 12.8128 424.436 0Z" fill="black"/>
</svg>
