<svg width="794" height="528" viewBox="0 0 794 528" fill="none" xmlns="http://www.w3.org/2000/svg">
<path d="M664.963 527.433H337.209C249.666 527.433 181.813 461.094 181.813 375.672C181.813 373.249 181.813 370.826 181.813 368.704C85.1847 365.07 25.809 311.15 3.39469 252.687C-6.5996 228.454 6.42185 206.342 30.0518 206.342C48.229 206.342 63.0675 214.217 95.179 214.217C172.422 214.217 213.316 171.506 213.316 101.23C213.316 67.0001 202.715 48.2187 202.715 31.2558C202.715 6.41726 224.222 -6.00274 250.878 3.0844C315.096 24.2887 369.62 92.7487 369.62 176.656C369.62 179.382 369.318 182.109 369.318 184.834C405.97 143.032 456.86 118.799 514.718 118.799C614.983 118.799 698.89 196.043 708.886 295.702C759.473 311.454 793.4 355.073 793.4 410.204C793.4 478.36 742.208 527.433 664.963 527.433ZM325.092 175.444C325.092 116.982 290.256 71.2415 250.575 49.4301L247.243 51.8544C252.392 66.3944 256.936 86.993 256.936 110.317C256.936 197.254 193.322 257.232 105.478 257.232C83.969 257.232 63.9804 253.294 50.0461 248.75L48.229 250.87C66.7033 286.614 113.958 324.479 190.598 324.479C209.68 273.286 256.632 236.33 316.61 227.849C322.365 211.492 325.092 193.619 325.092 175.444ZM666.176 478.966C717.67 478.966 744.935 449.28 744.935 411.416C744.935 379.307 726.153 351.136 681.625 339.019C667.085 335.384 661.632 328.72 660.42 313.272C653.453 228.454 590.446 167.266 514.718 167.266C455.952 167.266 410.212 199.677 382.04 256.02C375.679 269.046 368.106 273.59 352.658 273.59C274.505 273.59 230.279 320.844 230.279 377.187C230.279 433.529 276.323 478.966 336.299 478.966H666.176Z" fill="black"/>
</svg>
