<svg width="669" height="632" viewBox="0 0 669 632" fill="none" xmlns="http://www.w3.org/2000/svg">
<path d="M135.333 465L102 531.667M268.667 465L202 598.333M402 465L368.667 531.667M535.333 465L468.667 598.333M635 233C635 268.362 620.952 302.276 595.947 327.281C570.943 352.286 537.029 366.333 501.666 366.333H135C120.251 366.444 105.661 363.29 92.2746 357.099C78.8881 350.908 67.0367 341.833 57.5698 330.523C48.103 319.214 41.255 305.95 37.5166 291.683C33.7782 277.416 33.2421 262.498 35.9465 248C38.6509 233.501 44.529 219.78 53.1595 207.82C61.79 195.86 72.9592 185.957 85.8667 178.821C98.7743 171.684 113.1 167.492 127.819 166.543C142.537 165.595 157.283 167.913 171 173.333C176.394 140.809 191.312 110.615 213.869 86.5702C236.425 62.5257 265.606 45.7112 297.72 38.2536C329.834 30.796 363.439 33.0303 394.283 44.674C425.127 56.3176 451.825 76.8475 471 103.667C481.037 101.172 491.325 99.8296 501.666 99.6666C537.029 99.6666 570.943 113.714 595.947 138.719C620.952 163.724 635 197.638 635 233Z" stroke="black" stroke-width="66.6667" stroke-linecap="round" stroke-linejoin="round"/>
</svg>
