<svg width="652" height="718" viewBox="0 0 652 718" fill="none" xmlns="http://www.w3.org/2000/svg">
<g clip-path="url(#clip0_133_3346)">
<path d="M26 192.333L142.667 259M142.667 259L326 359M142.667 259L26 292.333M142.667 259L126 142.333M626 525.667L509.333 459M509.333 459L326 359M509.333 459L526 575.667M509.333 459L626 425.667M326 359L142.667 459M326 359V125.667M326 359V575.667M326 359L509.333 259M142.667 459L26 525.667M142.667 459L26 425.667M142.667 459L126 575.667M326 125.667V25.6666M326 125.667L242.667 92.3333M326 125.667L409.333 92.3333M326 575.667V692.333M326 575.667L409.333 625.667M326 575.667L242.667 625.667M509.333 259L626 192.333M509.333 259L626 292.333M509.333 259L526 142.333" stroke="black" stroke-width="50" stroke-linecap="round" stroke-linejoin="round"/>
</g>
<defs>
<clipPath id="clip0_133_3346">
<rect width="652" height="718" fill="white"/>
</clipPath>
</defs>
</svg>
