<svg width="700" height="734" viewBox="0 0 700 734" fill="none" xmlns="http://www.w3.org/2000/svg">
<path fill-rule="evenodd" clip-rule="evenodd" d="M216.667 200C216.667 126.362 276.362 66.6667 350 66.6667C423.637 66.6667 483.333 126.362 483.333 200V233.333H516.667C589.833 233.333 633.333 276.07 633.333 316.667C633.333 341.1 624.497 360.5 607.827 374.393C590.533 388.803 561.44 400 516.667 400H371.19L411.723 334.137C421.37 318.457 416.483 297.926 400.803 288.278C385.123 278.63 364.593 283.518 354.943 299.197L292.913 400H183.333C138.561 400 109.467 388.803 92.1727 374.393C75.5033 360.5 66.6667 341.1 66.6667 316.667C66.6667 276.07 110.166 233.333 183.333 233.333H216.667V200ZM251.886 466.667H183.333C128.105 466.667 82.1997 452.863 49.494 425.607C16.1633 397.833 0 358.9 0 316.667C0 234.322 71.6023 179.946 152.42 168.793C167.405 73.1587 250.159 0 350 0C449.84 0 532.597 73.1587 547.58 168.793C628.397 179.946 700 234.322 700 316.667C700 358.9 683.837 397.833 650.507 425.607C617.8 452.863 571.893 466.667 516.667 466.667H330.163L309.653 500H383.333C395.343 500 406.423 506.46 412.34 516.91C418.257 527.36 418.097 540.187 411.917 550.483L311.917 717.15C302.443 732.937 281.969 738.053 266.183 728.583C250.397 719.11 245.279 698.637 254.75 682.85L324.46 566.667H250C237.924 566.667 226.792 560.137 220.902 549.593C215.011 539.05 215.282 526.147 221.611 515.863L251.886 466.667Z" fill="black"/>
</svg>
