<svg width="668" height="534" viewBox="0 0 668 534" fill="none" xmlns="http://www.w3.org/2000/svg">
<path d="M367.244 133.633C472.862 133.633 532.777 203.542 541.491 287.97L544.157 287.97C612.126 287.97 667.226 342.928 667.226 410.721C667.226 478.515 612.126 533.472 544.157 533.472H190.332C122.363 533.472 67.2629 478.515 67.2629 410.721C67.2629 342.928 122.363 287.97 190.333 287.97L192.998 287.97C201.762 202.987 261.627 133.633 367.244 133.633ZM367.244 175.219C296.227 175.219 234.327 232.685 234.327 312.062C234.327 324.639 223.392 334.508 210.87 334.508L187.194 334.507C143.959 334.507 108.911 369.737 108.911 413.196C108.911 456.655 143.959 491.886 187.194 491.886H547.295C590.53 491.886 625.578 456.655 625.578 413.196C625.578 369.737 590.53 334.507 547.296 334.507L523.619 334.508C511.097 334.508 500.162 324.639 500.162 312.062C500.162 231.667 438.262 175.219 367.244 175.219ZM79.0704 271.862C83.177 281.776 79.0199 293.052 69.7705 298.032L67.8537 298.941L29.3291 314.971C18.7539 319.351 6.63007 314.329 2.2497 303.754C-1.8569 293.84 2.30018 282.564 11.5495 277.584L13.4663 276.675L51.991 260.645C62.5662 256.265 74.69 261.287 79.0704 271.862ZM295.735 111.173L294.719 111.499C279.307 116.532 264.984 123.199 251.87 131.335C230.066 122.11 204.712 121.294 181.103 131.074C134.33 150.447 112.119 204.069 131.493 250.842C133.385 255.409 135.603 259.742 138.11 263.825C125.464 268.343 113.572 274.464 102.674 281.94C99.729 276.894 97.0955 271.588 94.798 266.041C67.0297 199.003 98.8646 122.147 165.903 94.3784C210.644 75.846 259.759 83.8618 295.735 111.173ZM26.9336 114.171L29.05 114.934L67.6969 131.414C78.1935 135.85 83.2282 148.005 78.9422 158.563C74.9419 168.417 64.2362 173.398 54.2924 170.413L52.176 169.65L13.5291 153.169C3.03252 148.734 -2.00218 136.579 2.2838 126.021C6.28404 116.166 16.9898 111.185 26.9336 114.171ZM149.74 11.2767L150.654 13.2034L166.662 51.6355C171.065 62.2656 166.017 74.4524 155.387 78.8555C145.421 82.9835 134.087 78.8048 129.081 69.5074L128.167 67.5806L112.159 29.1486C107.756 18.5185 112.804 6.33167 123.434 1.92854C133.4 -2.1994 144.734 1.97929 149.74 11.2767ZM300.545 1.94176C310.574 6.09581 315.687 17.1037 312.706 27.2891L311.942 29.4563L295.42 67.3845C290.969 78.1296 278.65 83.2321 267.905 78.7814C257.876 74.6273 252.763 63.6194 255.744 53.434L256.508 51.2668L273.031 13.3386C277.481 2.59356 289.8 -2.509 300.545 1.94176Z" fill="#212121"/>
</svg>
